<svg id="Layer_1" data-name="Layer 1" xmlns="http://www.w3.org/2000/svg" viewBox="0 0 45 45"><defs><style>.cls-1{fill:#eee9d1;}</style></defs><title>emoji-question</title><path class="cls-1" d="M34.26,13.94A11.92,11.92,0,0,0,22.83,2.5h0A11.77,11.77,0,0,0,10.74,13.93c0,.11,0,.23,0,.34h2.36a9.35,9.35,0,0,1,2.85-6.75,9.2,9.2,0,0,1,6.83-2.66A9.52,9.52,0,0,1,31.91,14a9.37,9.37,0,0,1-6.41,9.19,6,6,0,0,0-4.18,5.63v9h2.35v-9a3.62,3.62,0,0,1,2.58-3.4A11.69,11.69,0,0,0,34.26,13.94Z"/><rect class="cls-1" x="21.32" y="40.15" width="2.35" height="2.35"/></svg>