<?xml version="1.0" encoding="UTF-8"?>
<svg width="45px" height="45px" viewBox="0 0 45 45" version="1.1" xmlns="http://www.w3.org/2000/svg" xmlns:xlink="http://www.w3.org/1999/xlink">
    <!-- Generator: Sketch 52.6 (67491) - http://www.bohemiancoding.com/sketch -->
    <title>emoji-beer</title>
    <desc>Created with Sketch.</desc>
    <g stroke="none" stroke-width="1" fill="none" fill-rule="evenodd">
        <g transform="translate(3.000000, 0.000000)" fill="#EEE9D1">
            <path d="M22.1470588,39.6641602 C21.66,39.6641602 21.2647059,40.0579102 21.2647059,40.5430664 C21.2647059,41.0282227 21.66,41.4219727 22.1470588,41.4219727 C22.6341176,41.4219727 23.0294118,41.0282227 23.0294118,40.5430664 C23.0294118,40.0579102 22.6341176,39.6641602 22.1470588,39.6641602 Z"></path>
            <path d="M9.75,17.6036133 C9.26267647,17.6036133 8.86764706,17.9970996 8.86764706,18.4825195 L8.86764706,35.2696289 C8.86764706,35.7550488 9.26267647,36.1485352 9.75,36.1485352 C10.2373235,36.1485352 10.6323529,35.7550488 10.6323529,35.2696289 L10.6323529,18.4825195 C10.6323529,17.9970996 10.2373235,17.6036133 9.75,17.6036133 Z"></path>
            <path d="M16.8088235,17.6036133 C16.3215,17.6036133 15.9264706,17.9970996 15.9264706,18.4825195 L15.9264706,35.2696289 C15.9264706,35.7550488 16.3215,36.1485352 16.8088235,36.1485352 C17.2961471,36.1485352 17.6911765,35.7550488 17.6911765,35.2696289 L17.6911765,18.4825195 C17.6911765,17.9970996 17.2961471,17.6036133 16.8088235,17.6036133 Z"></path>
            <path d="M34.5441176,14.1503906 L30.1323529,14.1503906 L30.1323529,11.4909082 C31.5154412,10.4581055 32.1727941,8.71242187 31.7829706,6.98879883 C31.4182941,5.37249023 30.0788824,4.05342773 28.4505,3.70652344 C27.5848235,3.52151367 26.7129706,3.58699219 25.9185882,3.8878418 C25.122,2.63689453 23.7231176,1.84570312 22.1911765,1.84570312 C21.6137647,1.84570312 21.0495,1.95723633 20.5277647,2.17186523 C19.0508824,0.784160156 17.1037941,0 15.0882353,0 C12.4221176,0 9.93564706,1.35290039 8.46794118,3.56651367 C3.85588235,3.31233398 0.0441176471,6.95707031 0.0441176471,11.4512695 L0.0441176471,21.9981445 C0.0441176471,23.4520313 1.25135294,24.6348633 2.73529412,24.6348633 C3.06079412,24.6348633 3.37270588,24.5758887 3.66176471,24.4684863 L3.66176471,40.6054688 C3.66176471,43.0286133 5.64088235,45 8.07352941,45 L25.7205882,45 C28.1532353,45 30.1323529,43.0286133 30.1323529,40.6054688 L30.1323529,37.96875 L34.5441176,37.96875 C36.9767647,37.96875 38.9558824,35.9973633 38.9558824,33.5742188 L38.9558824,18.5449219 C38.9558824,16.1217773 36.9767647,14.1503906 34.5441176,14.1503906 Z M28.3676471,39.7265625 L25.6755882,39.7265625 C25.1882647,39.7265625 24.7932353,40.1200488 24.7932353,40.6054688 C24.7932353,41.0908887 25.1882647,41.4755859 25.6755882,41.4755859 L28.2158824,41.4755859 C27.8516471,42.4985449 26.8708235,43.2421875 25.7205882,43.2421875 L8.07352941,43.2421875 C6.92329412,43.2421875 5.94247059,42.507334 5.57823529,41.484375 L18.6185294,41.484375 C19.1058529,41.484375 19.5008824,41.0908887 19.5008824,40.6054688 C19.5008824,40.1200488 19.1058529,39.7265625 18.6185294,39.7265625 L5.42647059,39.7265625 L5.42647059,21.9788086 L5.42647059,15.7768945 C7.4085,15.4788574 9.12476471,14.2354687 10.0270588,12.392666 C10.2111176,12.392666 10.3732941,12.456123 10.4955,12.5755664 C11.4913235,13.5509766 12.8090294,14.0880762 14.2058824,14.0880762 C15.6536471,14.0880762 17.0051471,13.5172266 18.0119118,12.4801172 C18.0657353,12.4245703 18.1418824,12.392666 18.2205882,12.392666 C19.5941471,12.392666 20.4929118,12.6849023 20.8920882,13.2611133 C21.2211176,13.7361621 21.2208529,14.3962207 21.2205882,14.9266406 L21.2205882,18.4826074 C21.2205882,19.6283496 21.9583235,20.6053418 22.9852941,20.9681543 L22.9852941,35.2697168 C22.9852941,35.7551367 23.3803235,36.148623 23.8676471,36.148623 C24.3549706,36.148623 24.75,35.7551367 24.75,35.2697168 L24.75,20.9680664 C25.7769706,20.6052539 26.5147059,19.6283496 26.5147059,18.4825195 L26.5147059,12.2893945 C27.1327941,12.4122656 27.7635882,12.4130566 28.3676471,12.2900098 L28.3676471,39.7265625 Z M26.0323235,10.2785449 C25.7587941,10.1399414 25.4326765,10.1528613 25.1709706,10.3127344 C24.9093529,10.4725195 24.7499118,10.7562305 24.7499118,11.0619141 L24.7499118,18.4825195 C24.7499118,18.9671484 24.3540882,19.3614258 23.8675588,19.3614258 C23.3810294,19.3614258 22.9852059,18.9671484 22.9852059,18.4825195 L22.9852059,14.927168 C22.9854706,14.2349414 22.9859118,13.1887793 22.3445294,12.2627637 C21.5963824,11.1825 20.2088824,10.6347656 18.2205882,10.6347656 C17.6655882,10.6347656 17.1268235,10.8623145 16.7427353,11.2587012 C16.0719706,11.9496973 15.171,12.3301758 14.2058824,12.3301758 C13.2747353,12.3301758 12.3964412,11.9721973 11.7322059,11.3214551 C11.2792941,10.8785742 10.6737353,10.6347656 10.0270588,10.6347656 C9.35832353,10.6347656 8.73679412,11.0212207 8.44358824,11.6193164 C7.704,13.1278711 6.20682353,14.0738379 4.53652941,14.0880762 C4.05220588,14.092207 3.66167647,14.4844629 3.66167647,14.9669824 L3.66167647,21.9564844 C3.63061765,22.4740723 3.22658824,22.8770508 2.73529412,22.8770508 C2.23314706,22.8770508 1.80882353,22.4745117 1.80882353,21.9981445 L1.80882353,11.4512695 C1.80882353,8.05904297 4.59547059,5.31193359 8.02120588,5.31193359 C8.28741176,5.31193359 8.55502941,5.32880859 8.82247059,5.36299805 C9.17938235,5.40861328 9.52817647,5.23371094 9.70420588,4.92125977 C10.8032647,2.97 12.8662941,1.7578125 15.0882353,1.7578125 C16.8291176,1.7578125 18.5075294,2.51499023 19.6929706,3.8352832 C19.9802647,4.15538086 20.4577941,4.22182617 20.8222941,3.99216797 C21.2257941,3.73790039 21.6991765,3.60351562 22.1911765,3.60351562 C23.3144118,3.60351562 24.3183529,4.31200195 24.6893824,5.36633789 C24.7796471,5.62297852 24.9841765,5.82363281 25.2432353,5.90958984 C25.5022059,5.99554687 25.7866765,5.95722656 26.0134412,5.80570312 C26.6148529,5.40404297 27.3487941,5.26895508 28.0807059,5.42540039 C29.0336471,5.62842773 29.8480588,6.42981445 30.0612353,7.37472656 C30.5634706,9.59519531 28.2784412,11.4166406 26.0323235,10.2785449 Z M30.1323529,19.4238281 L33.6617647,19.4238281 L33.6617647,32.6953125 L30.1323529,32.6953125 L30.1323529,19.4238281 Z M37.1911765,33.5742188 C37.1911765,35.0281055 36.0037059,36.2109375 34.5441176,36.2109375 L30.1323529,36.2109375 L30.1323529,34.453125 L34.5441176,34.453125 C35.0314412,34.453125 35.4264706,34.0596387 35.4264706,33.5742188 L35.4264706,18.5449219 C35.4264706,18.059502 35.0314412,17.6660156 34.5441176,17.6660156 L30.1323529,17.6660156 L30.1323529,15.9082031 L34.5441176,15.9082031 C36.0037059,15.9082031 37.1911765,17.0910352 37.1911765,18.5449219 L37.1911765,33.5742188 Z" fill-rule="nonzero"></path>
        </g>
    </g>
</svg>