<?xml version="1.0" encoding="UTF-8"?>
<svg width="45px" height="45px" viewBox="0 0 45 45" version="1.1" xmlns="http://www.w3.org/2000/svg" xmlns:xlink="http://www.w3.org/1999/xlink">
    <!-- Generator: Sketch 52.6 (67491) - http://www.bohemiancoding.com/sketch -->
    <title>emoji-pie</title>
    <desc>Created with Sketch.</desc>
    <g stroke="none" stroke-width="1" fill="none" fill-rule="evenodd">
        <g transform="translate(0.000000, 12.000000)" fill="#EEE9D1">
            <path d="M45,9.18269231 C45,7.93673077 43.9753996,6.92307692 42.7159827,6.92307692 C42.5146976,6.92307692 42.3244924,6.93413462 42.1421598,6.95221154 C42.0774298,6.93355769 42.0092009,6.92307692 41.9383477,6.92307692 C40.8894492,6.92307692 39.300162,5.99009615 37.4600216,4.90980769 C33.9306803,2.83778846 29.0969222,0 22.5,0 C15.9030778,0 11.0693197,2.83778846 7.53988121,4.90980769 C5.69974082,5.99009615 4.11045356,6.92307692 3.06155508,6.92307692 C2.99070194,6.92307692 2.92237581,6.93355769 2.85764579,6.95221154 C2.67541037,6.93413462 2.48530238,6.92307692 2.28401728,6.92307692 C1.02460043,6.92307692 0,7.93673077 0,9.18269231 C0,10.4078846 0.990971922,11.4077885 2.22152268,11.4407692 L5.00782937,16.9539423 C5.92736501,18.7735577 7.77605832,19.9039423 9.8324514,19.9039423 L35.1674514,19.9039423 C37.2237473,19.9039423 39.0725378,18.7735577 39.9921706,16.9539423 L42.7784773,11.4407692 C44.0090281,11.4078846 45,10.4078846 45,9.18269231 Z M8.2837905,6.15009615 C11.668121,4.16336538 16.3030238,1.44230769 22.5,1.44230769 C28.6969762,1.44230769 33.331879,4.16336538 36.7162095,6.15009615 C37.8539417,6.81798077 38.8625054,7.40980769 39.7777646,7.81346154 C39.5955292,7.93653846 39.4367171,8.05644231 39.2997732,8.16048077 C38.9039093,8.46144231 38.9039093,8.46144231 38.6685097,8.46144231 C38.4327214,8.46144231 38.4327214,8.46144231 38.0361771,8.15990385 C37.427365,7.69740385 36.4084989,6.92307692 34.6206479,6.92307692 C32.8329914,6.92307692 31.814514,7.69778846 31.2057991,8.16076923 C30.8104212,8.46153846 30.8104212,8.46153846 30.5757019,8.46153846 C30.3425378,8.46153846 30.3425378,8.46153846 29.9476458,8.16086538 C29.3394168,7.69788462 28.3214255,6.92307692 26.5342549,6.92307692 C24.7476674,6.92307692 23.7297732,7.69721154 23.119892,8.16096154 C22.7251944,8.46153846 22.7251944,8.46153846 22.4908639,8.46153846 C22.2569222,8.46153846 22.2569222,8.46153846 21.862419,8.16115385 C21.2540929,7.69807692 20.2358099,6.92307692 18.4483477,6.92307692 C16.6608855,6.92307692 15.6426026,7.69807692 15.0340821,8.16125 C14.6395788,8.46153846 14.6395788,8.46153846 14.4057343,8.46153846 C14.1721814,8.46153846 14.1721814,8.46153846 13.7772894,8.16086538 C13.1690605,7.69788462 12.1510691,6.92307692 10.3635097,6.92307692 C8.57565875,6.92307692 7.55795896,7.69817308 6.94943844,8.16163462 C6.55561555,8.46153846 6.55561555,8.46153846 6.32284017,8.46153846 C6.09045356,8.46153846 6.09045356,8.46153846 5.69711663,8.16182692 C5.56056156,8.05769231 5.40204104,7.93769231 5.22009719,7.81442308 C6.13593952,7.41086538 7.14518359,6.81855769 8.2837905,6.15009615 Z M38.6882397,16.3089423 C38.0171274,17.6367308 36.6680022,18.4615385 35.1674514,18.4615385 L9.8325486,18.4615385 C8.33199784,18.4615385 6.98296976,17.6366346 6.31185745,16.3088462 L4.4650108,12.6548077 C4.96846652,12.8452885 5.57795896,12.9807692 6.32284017,12.9807692 C8.11030238,12.9807692 9.12800216,12.2056731 9.73593952,11.7425962 C10.1303456,11.4423077 10.1303456,11.4423077 10.3635097,11.4423077 C10.5974514,11.4423077 10.5974514,11.4423077 10.9923434,11.7429808 C11.6005724,12.2059615 12.6185637,12.9807692 14.4057343,12.9807692 C16.1932937,12.9807692 17.2114795,12.2057692 17.82,11.7425962 C18.214406,11.4423077 18.214406,11.4423077 18.4483477,11.4423077 C18.6822894,11.4423077 18.6822894,11.4423077 19.0767927,11.7426923 C19.685216,12.2057692 20.7034017,12.9807692 22.4909611,12.9807692 C24.2775486,12.9807692 25.2954428,12.2066346 25.905324,11.7428846 C26.3000216,11.4423077 26.3000216,11.4423077 26.5343521,11.4423077 C26.767905,11.4423077 26.767905,11.4423077 27.1622138,11.7425962 C27.7701512,12.2056731 28.787851,12.9807692 30.5757019,12.9807692 C32.3633585,12.9807692 33.3818359,12.2060577 33.9905508,11.7430769 C34.3858315,11.4423077 34.3858315,11.4423077 34.6205508,11.4423077 C34.8563391,11.4423077 34.8563391,11.4423077 35.2528834,11.7438462 C35.8616955,12.2065385 36.8805616,12.9807692 38.6685097,12.9807692 C39.4180562,12.9807692 40.0309503,12.8438462 40.5366415,12.6516346 L38.6882397,16.3089423 Z M42.7159827,10 C42.4652268,10 42.262095,10.0301923 42.0842333,10.0831731 C42.0790821,10.0848077 42.0738337,10.0860577 42.0686825,10.0877885 C41.7357991,10.1902885 41.4919438,10.3747115 41.1951188,10.6002885 C40.6741685,10.99625 39.9606803,11.5384615 38.6684125,11.5384615 C37.3758531,11.5384615 36.6620734,10.9960577 36.14054,10.5997115 C35.6826674,10.2515385 35.3517279,10 34.6205508,10 C33.890054,10 33.559406,10.2516346 33.1018251,10.5998077 C32.5810691,10.9959615 31.8677754,11.5384615 30.5757019,11.5384615 C29.2840173,11.5384615 28.5715983,10.9958654 28.0513283,10.5996154 C27.5941361,10.2514423 27.2637797,10 26.5342549,10 C25.8037581,10 25.4733045,10.2517308 25.0151404,10.6006731 C24.494676,10.9964423 23.7819654,11.5384615 22.4908639,11.5384615 C21.1992765,11.5384615 20.4862743,10.9957692 19.9658099,10.5996154 C19.5086177,10.2514423 19.1782613,10 18.4483477,10 C17.7184341,10 17.3880778,10.2515385 16.9309827,10.5995192 C16.4104212,10.9957692 15.697419,11.5384615 14.4058315,11.5384615 C13.1146328,11.5384615 12.4018251,10.9959615 11.8810691,10.5996154 C11.4238769,10.2514423 11.0935205,10 10.3636069,10 C9.63437365,10 9.30411447,10.2515385 8.84682505,10.5997115 C8.32645788,10.9958654 7.61403888,11.5384615 6.32284017,11.5384615 C5.03134989,11.5384615 4.31941685,10.9957692 3.79846652,10.5986538 C3.50407127,10.3745192 3.26177106,10.1910577 2.93199784,10.0885577 C2.92665227,10.0867308 2.9212095,10.0853846 2.91576674,10.08375 C2.73790497,10.0303846 2.5349676,10 2.28401728,10 C1.82847732,10 1.45788337,9.63336538 1.45788337,9.18269231 C1.45788337,8.73201923 1.82847732,8.36538462 2.28401728,8.36538462 C3.57550756,8.36538462 4.2874406,8.90807692 4.80741901,9.30451923 C5.26412527,9.6525 5.59419006,9.90384615 6.32284017,9.90384615 C7.05168467,9.90384615 7.38174946,9.6525 7.83933045,9.30413462 C8.35950324,8.90798077 9.07192225,8.36538462 10.3636069,8.36538462 C11.6551944,8.36538462 12.3680022,8.90788462 12.8886609,9.30423077 C13.3458531,9.65240385 13.6762095,9.90384615 14.4057343,9.90384615 C15.1357451,9.90384615 15.4660043,9.65230769 15.9230994,9.30432692 C16.4436609,8.90807692 17.1566631,8.36538462 18.4482505,8.36538462 C19.739838,8.36538462 20.4528402,8.90807692 20.9733045,9.30423077 C21.4304968,9.65240385 21.7608531,9.90384615 22.4907667,9.90384615 C23.2212635,9.90384615 23.5517171,9.65211538 24.0098812,9.30317308 C24.5303456,8.90740385 25.2430562,8.36538462 26.5341577,8.36538462 C27.8253564,8.36538462 28.5381641,8.90788462 29.0589201,9.30423077 C29.5162095,9.65230769 29.8465659,9.90384615 30.5757019,9.90384615 C31.3061987,9.90384615 31.6368467,9.65221154 32.0944276,9.30403846 C32.6151836,8.90788462 33.3284773,8.36538462 34.6205508,8.36538462 C35.9131102,8.36538462 36.6268898,8.90778846 37.1484233,9.30423077 C37.6062959,9.65240385 37.9372354,9.90384615 38.6684125,9.90384615 C39.3992981,9.90384615 39.7301404,9.65230769 40.1888877,9.30355769 C40.709838,8.90759615 41.4233261,8.36538462 42.7158855,8.36538462 C43.1714255,8.36538462 43.5420194,8.73201923 43.5420194,9.18269231 C43.5420194,9.63336538 43.1716199,10 42.7159827,10 Z" fill-rule="nonzero"></path>
            <path d="M22.5,6.82692308 C22.9025702,6.82692308 23.2289417,6.50403846 23.2289417,6.10576923 L23.2289417,3.79807692 C23.2289417,3.39980769 22.9025702,3.07692308 22.5,3.07692308 C22.0974298,3.07692308 21.7710583,3.39980769 21.7710583,3.79807692 L21.7710583,6.10576923 C21.7710583,6.50403846 22.0974298,6.82692308 22.5,6.82692308 Z"></path>
            <path d="M26.6498164,5.84644231 C26.7921058,5.98721154 26.9787149,6.05769231 27.1652268,6.05769231 C27.3517387,6.05769231 27.5383477,5.98730769 27.6806371,5.84644231 C27.9653132,5.56480769 27.9653132,5.10817308 27.6806371,4.82663462 L26.1255616,3.28817308 C25.8408855,3.00653846 25.3793197,3.00653846 25.0947408,3.28817308 C24.8100648,3.56980769 24.8100648,4.02644231 25.0947408,4.30798077 L26.6498164,5.84644231 Z"></path>
            <path d="M17.8347732,6.05769231 C18.0212851,6.05769231 18.2078942,5.98730769 18.3501836,5.84644231 L19.9052592,4.30798077 C20.1899352,4.02634615 20.1899352,3.56971154 19.9052592,3.28817308 C19.6205832,3.00653846 19.1590173,3.00653846 18.8744384,3.28817308 L17.3193629,4.82663462 C17.0346868,5.10826923 17.0346868,5.56490385 17.3193629,5.84644231 C17.4616523,5.98730769 17.6482613,6.05769231 17.8347732,6.05769231 Z"></path>
        </g>
    </g>
</svg>