<svg xmlns="http://www.w3.org/2000/svg" viewBox="0 0 45 45"><defs><style>.a{fill:#eee9d1;}</style></defs><title>emoji-feedback</title><path class="a" d="M39.38,8.84A11.09,11.09,0,0,0,23.6,8.75L22.52,9.83,21.44,8.75a11.09,11.09,0,0,0-15.69,0,11.09,11.09,0,0,0,0,15.69L19.61,38.3a4.12,4.12,0,0,0,5.81,0L39.2,24.53A11.19,11.19,0,0,0,39.38,8.84ZM37.75,23.07,24,36.85a2.05,2.05,0,0,1-2.9,0L7.2,23A9,9,0,0,1,20,10.2l1.08,1.08-1.66,1.66a1,1,0,0,0,0,1.46,1,1,0,0,0,.73.3,1,1,0,0,0,.72-.31l4.2-4.19a9,9,0,0,1,12.85.07A9.13,9.13,0,0,1,37.75,23.07Z"/><path class="a" d="M38.93,16.13a7.5,7.5,0,0,0-5.46-6.76,1,1,0,1,0-.55,2,5.55,5.55,0,0,1,2.38,1.4,5.43,5.43,0,0,1,1.58,3.51,1,1,0,0,0,1,1H38A1,1,0,0,0,38.93,16.13Z"/></svg>