<?xml version="1.0" encoding="UTF-8"?>
<svg width="45px" height="45px" viewBox="0 0 45 45" version="1.1" xmlns="http://www.w3.org/2000/svg" xmlns:xlink="http://www.w3.org/1999/xlink">
    <!-- Generator: Sketch 52.6 (67491) - http://www.bohemiancoding.com/sketch -->
    <title>emoji-koala</title>
    <desc>Created with Sketch.</desc>
    <g stroke="none" stroke-width="1" fill="none" fill-rule="evenodd">
        <g transform="translate(0.000000, 11.000000)" fill="#EEE9D1">
            <path d="M17.8671094,10.6331333 C17.8671094,9.45724 16.8969727,8.50061333 15.7044727,8.50061333 C14.5120605,8.50061333 13.5419238,9.45724 13.5419238,10.6331333 C13.5419238,10.9921067 13.8369727,11.2831333 14.2011035,11.2831333 C14.5652344,11.2831333 14.8602832,10.9921067 14.8602832,10.6331333 C14.8602832,10.17406 15.2390039,9.80061333 15.7044727,9.80061333 C16.1699414,9.80061333 16.54875,10.17406 16.54875,10.6331333 C16.54875,10.9921067 16.8437988,11.2831333 17.2079297,11.2831333 C17.5719727,11.2831333 17.8671094,10.9921933 17.8671094,10.6331333 Z"></path>
            <path d="M23.5801758,15.9867933 C23.3073633,16.2954133 22.9136133,16.4723867 22.4998242,16.4723867 C22.0860352,16.4723867 21.6922852,16.2954133 21.4194727,15.9867933 C21.1801465,15.7161333 20.7637207,15.6879667 20.4894141,15.9238733 C20.2149316,16.15978 20.1864551,16.57032 20.4255176,16.84098 C20.9488184,17.433 21.7048535,17.7724733 22.4998242,17.7724733 C23.2947949,17.7724733 24.0508301,17.433 24.5741309,16.84098 C24.8132813,16.57032 24.7847168,16.15978 24.5102344,15.9238733 C24.2358398,15.6879667 23.8193262,15.7161333 23.5801758,15.9867933 Z"></path>
            <path d="M44.9688867,3.25624 C44.7088184,1.40053333 42.8854395,0.0565933333 40.6305176,0.0565933333 C40.6199707,0.0565933333 40.6089844,0.0565933333 40.5986133,0.05694 C40.2411621,0.05772 39.8586621,0.0789533333 39.4614844,0.120206667 C39.0994629,0.15782 38.8367578,0.477706667 38.8749023,0.834686667 C38.912959,1.19166667 39.236748,1.45028 39.5994727,1.4131 C39.9585938,1.37583333 40.3016309,1.35694 40.6190918,1.35694 C40.6257715,1.35694 40.6324512,1.35685333 40.6391309,1.35668 C42.19875,1.36023333 43.497334,2.25099333 43.6630078,3.43416667 C43.7463281,4.02896 43.5418945,4.6449 43.0874121,5.16854 C42.8810449,5.40626667 42.8758594,5.75536 43.0749316,5.99898 C43.355918,6.34296 43.6703027,6.89840667 43.5718652,7.59156667 C43.4890723,8.17509333 43.1211621,8.69795333 42.5361621,9.06377333 C42.2442773,9.24638 42.144873,9.62026 42.3086133,9.92056 C42.5714063,10.4025133 42.6460254,10.9084733 42.5243848,11.3837533 C42.2535059,12.4423 41.0699707,13.1306933 39.6495703,13.0557267 C38.8999512,13.0167267 38.1804785,13.29874 37.677041,13.8297467 C37.6590234,13.8488133 37.6402148,13.86684 37.6219336,13.8854733 C37.6253613,13.7686467 37.6273828,13.6514733 37.6273828,13.53378 C37.6273828,13.2326133 37.6150781,12.93396 37.5931055,12.6376467 C39.8280762,11.4523933 40.9995703,9.36485333 40.3996289,7.53679333 C39.7336816,5.50766667 37.1235938,4.50900667 34.3460742,5.16204 C33.9035449,4.66604667 33.422959,4.19822 32.907832,3.76246 C34.0369629,3.04061333 35.3485547,2.44079333 36.7486523,2.01032 C37.0961719,1.90346 37.2900586,1.53902667 37.1817773,1.19626 C37.0733203,0.853493333 36.7037402,0.66248 36.3562207,0.769166667 C34.6858594,1.28275333 33.126416,2.02314667 31.8141211,2.92127333 C29.2445508,1.12736 26.01,0.0565066667 22.4999121,0.0565066667 C18.9898242,0.0565066667 15.7553613,1.12727333 13.1858789,2.9211 C10.3121191,0.951513333 6.7509668,0.06188 4.40121094,0.0568533333 C4.39066406,0.0565066667 4.38011719,0.0565066667 4.36930664,0.0565066667 C2.11456055,0.0565066667 0.290917969,1.40062 0.0309375,3.25624 C-0.0825292969,4.06648667 0.117861328,4.88453333 0.598271484,5.60456 C0.185185547,6.27683333 0.0171386719,7.03066 0.12234375,7.77174667 C0.234931641,8.56500667 0.645556641,9.27836 1.29533203,9.82566 C1.07349609,10.4430733 1.0387793,11.0825867 1.1971582,11.70182 C1.62421875,13.3705867 3.3619043,14.4605933 5.41986328,14.3539067 C5.78003906,14.3351 6.12290039,14.4676133 6.35976563,14.7173867 C6.71879883,15.0962067 7.12397461,15.4152267 7.56624023,15.67124 C8.25380859,19.38326 10.7486719,22.4542067 14.6441602,24.28218 C14.9724316,24.4364467 15.3660938,24.2987333 15.522627,23.9746 C15.6789844,23.6504667 15.5393262,23.2626333 15.2106152,23.1083667 C11.0671875,21.164 8.69088867,17.6741933 8.69088867,13.53378 C8.69088867,6.81928 14.8855957,1.35659333 22.5,1.35659333 C30.1144043,1.35659333 36.3091113,6.81928 36.3091113,13.53378 C36.3091113,14.0737133 36.2690332,14.6011667 36.1913379,15.11536 C36.1857129,15.1406667 36.1820215,15.1664067 36.1794727,15.19232 C35.7815918,17.69716 34.4679785,19.87622 32.3201953,21.56154 C29.7873633,23.5488933 26.2997754,24.6434067 22.5,24.6434067 C21.0227344,24.6434067 19.5824707,24.4781333 18.2190234,24.15218 C17.8649121,24.06742 17.5088672,24.2818333 17.422998,24.6306667 C17.3372168,24.9795867 17.5544824,25.3309333 17.9082422,25.41552 C19.373291,25.7658267 20.9181445,25.9434067 22.4999121,25.9434067 C26.5966699,25.9434067 30.375791,24.7485333 33.1410059,22.5788333 C35.4411914,20.774 36.9186328,18.3732467 37.4280469,15.67462 C37.8725098,15.4180867 38.2796191,15.09794 38.6401465,14.7174733 C38.8769238,14.4677 39.218291,14.3349267 39.5800488,14.3539933 C41.6397656,14.4615467 43.3756055,13.3706733 43.8027539,11.70182 C43.9611328,11.0825867 43.926416,10.44316 43.7045801,9.82574667 C44.3543555,9.27844667 44.7648926,8.56509333 44.8775684,7.77183333 C44.9827734,7.03083333 44.8147266,6.27692 44.4016406,5.60473333 C44.8819629,4.88462 45.0823535,4.06648667 44.9688867,3.25624 Z M7.59348633,11.2346 C6.22643555,10.3453133 5.49711914,9.02581333 5.85448242,7.93702 C6.25447266,6.71822667 7.89354492,6.07602667 9.73133789,6.31427333 C8.67919922,7.78596 7.93907227,9.45082667 7.59348633,11.2346 Z M10.6535742,5.16212667 C7.87623047,4.50909333 5.2659668,5.50766667 4.60001953,7.53688 C4.00007812,9.36485333 5.17157227,11.4523933 7.40654297,12.6377333 C7.38457031,12.9340467 7.37226562,13.2327 7.37226562,13.5338667 C7.37226562,13.6519933 7.37516602,13.7692533 7.37850586,13.8864267 C7.35987305,13.8674467 7.34080078,13.84916 7.32243164,13.8297467 C6.81908203,13.2988267 6.09978516,13.0167267 5.34999023,13.0557267 C3.92941406,13.1300867 2.74605469,12.4423 2.47517578,11.38384 C2.35353516,10.9084733 2.4281543,10.4024267 2.69094727,9.92056 C2.8546875,9.62034667 2.7552832,9.24638 2.46339844,9.06377333 C1.87839844,8.69795333 1.51048828,8.17509333 1.42769531,7.59165333 C1.32925781,6.89840667 1.64364258,6.34296 1.92462891,5.99898 C2.12378906,5.75527333 2.11851562,5.40626667 1.91214844,5.16854 C1.45766602,4.6449 1.25323242,4.02896 1.33655273,3.43425333 C1.50231445,2.25099333 2.80072266,1.36014667 4.3603418,1.35668 C4.36702148,1.35694 4.37370117,1.35694 4.38046875,1.35694 C6.36433594,1.35694 9.51213867,2.11414667 12.0915527,3.76272 C11.5765137,4.19839333 11.0961035,4.66622 10.6535742,5.16212667 Z M37.4061621,11.2346 C37.0605762,9.45082667 36.3204492,7.78596 35.2683984,6.31427333 C37.1063672,6.07602667 38.7451758,6.71822667 39.1452539,7.93702 C39.5025293,9.02581333 38.7732129,10.3454 37.4061621,11.2346 Z" fill-rule="nonzero"></path>
            <path d="M28.4508984,10.6331333 C28.4508984,10.17406 28.8296191,9.80061333 29.2951758,9.80061333 C29.7607324,9.80061333 30.1393652,10.17406 30.1393652,10.6331333 C30.1393652,10.9921067 30.4344141,11.2831333 30.7985449,11.2831333 C31.1626758,11.2831333 31.4577246,10.9921067 31.4577246,10.6331333 C31.4577246,9.45724 30.4875879,8.50061333 29.2951758,8.50061333 C28.1026758,8.50061333 27.1325391,9.45724 27.1325391,10.6331333 C27.1325391,10.9921067 27.4275879,11.2831333 27.7917188,11.2831333 C28.1557617,11.2831333 28.4508984,10.9921933 28.4508984,10.6331333 Z"></path>
            <path d="M24.7968457,9.38123333 C24.2604492,8.814 23.4661816,8.51413333 22.4997363,8.51413333 C21.533291,8.51413333 20.7390234,8.814 20.202627,9.38123333 C19.670625,9.94396 19.4354297,10.7155533 19.5037207,11.6746067 C19.6647363,13.93704 21.1535156,15.2891267 22.4997363,15.2891267 C23.2203516,15.2891267 23.9537109,14.9111733 24.5116406,14.2522467 C25.0835449,13.5767667 25.4238574,12.6854 25.495752,11.6746067 C25.564043,10.7154667 25.3288477,9.94387333 24.7968457,9.38123333 Z M24.1807324,11.58352 C24.0691113,13.1530533 23.1327246,13.9889533 22.4998242,13.9889533 C21.8669238,13.9889533 20.930625,13.1529667 20.818916,11.58352 C20.7772559,10.9986933 20.8944141,10.556 21.1670508,10.26766 C21.5215137,9.89282667 22.0875293,9.81413333 22.4998242,9.81413333 C22.9121191,9.81413333 23.4781348,9.89282667 23.8325977,10.26766 C24.1051465,10.556 24.2223047,10.9986933 24.1807324,11.58352 Z" fill-rule="nonzero"></path>
        </g>
    </g>
</svg>