<svg xmlns="http://www.w3.org/2000/svg" viewBox="0 0 45 45"><defs><style>.a{fill:#eee9d1;}</style></defs><title>emoji-feedback</title><path class="a" d="M40.69,6.92a.81.81,0,0,0,.19-1.13.8.8,0,0,0-1.12-.19L37.74,7a.8.8,0,0,0-.19,1.12.77.77,0,0,0,.66.34.78.78,0,0,0,.46-.14Z"/><path class="a" d="M35.35,6.45a.71.71,0,0,0,.28.06A.82.82,0,0,0,36.39,6l.87-2.31a.81.81,0,0,0-1.52-.57l-.87,2.31A.81.81,0,0,0,35.35,6.45Z"/><path class="a" d="M41.69,10h0l-2.47,0a.79.79,0,0,0-.79.8.8.8,0,0,0,.8.8h0l2.47,0a.8.8,0,0,0,.79-.82A.78.78,0,0,0,41.69,10Z"/><path class="a" d="M36.71,22.3a3.35,3.35,0,0,0-1.42-.65l.1-.19.32-.32a3.44,3.44,0,0,0,.3-4.57,3.34,3.34,0,0,0-2-1.23,2.2,2.2,0,0,0,.15-.31,3.4,3.4,0,0,0-2.1-5.31,3.41,3.41,0,0,0-5.24-4.2A3.33,3.33,0,0,0,26.16,4a3.4,3.4,0,0,0-2.68-1.3h0a3.36,3.36,0,0,0-2.42,1l-8.19,8.19,0-1.1a3.4,3.4,0,0,0-6.79-.1L4.41,22.6,3.07,24.16a2.37,2.37,0,0,0,.12,3.22l2,2a2.37,2.37,0,0,0,.3,3l9.37,9.36a2.38,2.38,0,0,0,3.12.2l2-1.5a18.64,18.64,0,0,0,6.17-3,47.2,47.2,0,0,0,6.24-5.36L37,27.4a3.43,3.43,0,0,0-.3-5.1ZM27.82,6.81A1.8,1.8,0,0,1,30.51,7a1.84,1.84,0,0,1-.18,2.42l-.84.83c-.12.09-.25.18-.36.28a3.42,3.42,0,0,0-2.36-2.65ZM22.2,4.86A1.8,1.8,0,0,1,24.89,5a1.84,1.84,0,0,1-.18,2.42l-9.54,9.45,0-1.09a3.34,3.34,0,0,0-1.25-2.61ZM4.33,26.24a.77.77,0,0,1,0-1L6,23.29H6L7.66,10.84a1.79,1.79,0,0,1,3.57,0l0,1.62A3.4,3.4,0,0,0,8.34,15.7L6.71,27.58l-.48.55Zm31.54,0-4.66,4.66c-4,4-8.14,7.17-11.8,8a.87.87,0,0,0-.31.14L17,40.65a.8.8,0,0,1-.46.16.79.79,0,0,1-.54-.22L6.63,31.22a.74.74,0,0,1,0-1l1.65-1.93h0L10,15.82a1.79,1.79,0,0,1,3.57,0l.08,2.94a.84.84,0,0,0,.84.81.82.82,0,0,0,.58-.25L24.5,9.84a1.81,1.81,0,0,1,2.68.16A1.83,1.83,0,0,1,27,12.43L20.47,19a.89.89,0,0,0,0,1.23h0a.9.9,0,0,0,.63.25.88.88,0,0,0,.62-.25l8.39-8.4a1.79,1.79,0,0,1,1.27-.52A1.81,1.81,0,0,1,32.8,12a1.85,1.85,0,0,1-.18,2.43l-8.36,8.35a.89.89,0,0,0,0,1.25.88.88,0,0,0,.62.25.85.85,0,0,0,.61-.25l6.57-6.57a1.8,1.8,0,0,1,2.69.16A1.84,1.84,0,0,1,34.57,20L28.06,26.5a.9.9,0,0,0,0,1.27h0a.82.82,0,0,0,1.18,0l4-4a1.93,1.93,0,0,1,1.34-.56,1.78,1.78,0,0,1,1.09.38A1.81,1.81,0,0,1,35.87,26.26Z"/></svg>
