<?xml version="1.0" encoding="UTF-8"?>
<svg width="45px" height="45px" viewBox="0 0 45 45" version="1.1" xmlns="http://www.w3.org/2000/svg" xmlns:xlink="http://www.w3.org/1999/xlink">
    <!-- Generator: Sketch 52.6 (67491) - http://www.bohemiancoding.com/sketch -->
    <title>emoji-kangaroo</title>
    <desc>Created with Sketch.</desc>
    <g stroke="none" stroke-width="1" fill="none" fill-rule="evenodd">
        <g transform="translate(0.000000, 3.000000)" fill="#EEE9D1">
            <path d="M23.5801758,18.0689778 C22.7439844,17.8910222 21.9592969,17.8552889 21.2479102,17.9632889 C20.8428223,18.0247111 20.5635937,18.4066667 20.6243262,18.8162667 C20.6851465,19.2261333 21.0622852,19.5085333 21.4678125,19.4471111 C22.0039453,19.3662222 22.6117969,19.3961778 23.274668,19.5371556 C23.3261719,19.5481778 23.3775,19.5534222 23.428125,19.5534222 C23.7715137,19.5533333 24.0796582,19.3108444 24.1532227,18.9575111 C24.2376855,18.5520889 23.9810449,18.1543111 23.5801758,18.0689778 Z"></path>
            <path d="M44.9677441,38.1160889 C44.8807324,37.8271111 44.6307715,37.6192889 44.3337891,37.5885333 C40.0456055,37.1443556 37.211748,35.6529778 35.9107031,33.1557333 C34.8237598,31.0693333 34.9759863,28.7002667 35.076709,27.1325333 C35.1137988,26.5556444 35.1430664,26.1001778 35.1054492,25.7502222 C34.8977637,23.8140444 33.309668,22.5765333 32.6914453,22.1637333 C31.1234766,18.1599111 28.0356152,15.3962667 23.509248,13.9464889 C19.8682031,12.7802667 16.2391992,12.8016889 14.6891602,12.8104889 C14.4204785,12.8121778 14.2081348,12.8131556 14.0781445,12.8083556 C12.8471484,12.7607111 12.412793,11.5208 12.3919629,11.4595556 C12.2642578,11.0681778 11.8481836,10.8536889 11.459707,10.9806222 C11.0698242,11.1078222 10.8558105,11.5307556 10.981582,11.9249778 C11.0114648,12.0186667 11.7398145,14.2196444 14.0213672,14.3075556 C14.1840527,14.3140444 14.4106348,14.3125333 14.6975977,14.3108444 C16.1778516,14.3022222 19.6428516,14.2820444 23.0611816,15.3767111 C27.2215723,16.7092444 30.0252832,19.2512889 31.3945312,22.9321778 C31.4558789,23.0968889 31.5745312,23.2358222 31.7261426,23.3224 C31.743457,23.3323556 33.460752,24.3306667 33.6304687,25.912 C33.6541113,26.1326222 33.6273047,26.5509333 33.5961914,27.0352 C33.4913379,28.6655111 33.3159961,31.3941333 34.5980566,33.8551111 C35.733252,36.0340444 37.7722266,37.5608889 40.6787695,38.4163556 C39.700459,38.3777778 38.4777246,38.1653333 36.9911426,37.6283556 C35.6400879,37.1404444 34.505332,36.2326222 33.6186914,34.9299556 C31.6630371,32.0569778 31.5428906,28.2093333 31.5418359,28.1716444 C31.532959,27.7956444 31.2502148,27.4843556 30.880459,27.4437333 C30.5107031,27.4016889 30.1683691,27.6456889 30.0798633,28.0108444 C30.0759961,28.0267556 29.6577246,29.6138667 28.3258301,30.1745778 C27.208916,30.6447111 25.7135449,30.3176889 23.8811133,29.2030222 C23.6356348,29.0536 23.3269629,29.0606222 23.0881641,29.2211556 C22.849541,29.3816 22.7235938,29.6666667 22.7647266,29.9535111 L23.8587012,37.5847111 L12.9591211,37.5847111 C13.3991016,37.1464889 14.061709,36.7072 15.0092578,36.5766222 C16.0139355,36.4380444 17.1470215,36.5307556 18.1465137,36.6124444 C19.7695898,36.7452444 21.0514746,36.8498667 21.6169629,35.9640889 C22.0336523,35.3112889 22.0084277,34.2184 21.5378613,32.5244444 C21.1341797,31.0713778 20.409082,29.2436444 19.4412305,27.2391111 C18.2003027,24.6689778 18.3850488,21.5771556 19.861875,20.2002667 C20.1629883,19.9193778 20.1821484,19.4448 19.904502,19.1400889 C19.6268555,18.8355556 19.1576074,18.8162667 18.8563184,19.0969778 C17.1718945,20.6674667 16.8587402,23.3241778 17.3641113,25.6973333 C16.5939258,25.3590222 15.4616309,24.5984889 14.2277344,22.8912889 L14.8955273,20.9084444 C14.9668945,20.6965333 14.9408789,20.4632 14.8245996,20.2727111 L12.677168,16.7529778 C12.4620996,16.4003556 12.0052441,16.2910222 11.6564063,16.5085333 C11.3077441,16.7261333 11.1995508,17.1882667 11.414707,17.5408889 L13.378623,20.7597333 L11.7017578,25.7391111 C11.6464746,25.9033778 11.6491113,26.0817778 11.7093164,26.2441778 L12.4077832,28.1295111 L11.5400391,28.1295111 C11.0689453,27.6593778 11.0795801,27.1593778 11.3751563,24.5708444 L11.4229688,24.1515556 C11.8071387,20.7626667 10.5710449,18.8172444 10.5182227,18.736 C10.2930469,18.3900444 9.83293945,18.2941333 9.49086914,18.5217778 C9.14871094,18.7494222 9.05378906,19.2147556 9.27905273,19.5608 C9.28063477,19.5632 9.39621094,19.7501333 9.53481445,20.1029333 C8.30179688,18.8334222 7.67707031,16.8141333 7.36136719,15.1407111 C7.03854492,13.4294222 6.98132813,11.8033778 6.97851563,10.9187556 C7.30713867,10.9010667 7.46173828,10.8813333 7.49636719,10.8764444 C7.90057617,10.8191111 8.18138672,10.4423111 8.12654297,10.0331556 C8.07169922,9.624 7.69833984,9.33662222 7.2937793,9.39013333 C7.28595703,9.3912 6.49063477,9.49155556 4.12057617,9.4264 C2.84176758,9.39111111 2.01445313,9.39271111 1.50539063,9.40355556 C1.41644531,8.49777778 1.55979492,7.75884444 1.79428711,7.66568889 C2.38535156,7.43102222 3.14920898,6.89982222 3.95789063,6.33742222 C4.63825195,5.86417778 5.4412207,5.30613333 6.04828125,5.00995556 L6.0852832,5.29182222 C6.13916016,5.70248889 6.51181641,5.99235556 6.91813477,5.93688889 C7.32418945,5.88248889 7.60983398,5.50542222 7.55595703,5.09466667 L7.31680664,3.2704 L8.61556641,4.82808889 C8.71892578,4.952 8.79890625,5.02311111 8.95051758,5.05866667 C9.0994043,5.13475556 10.3707422,5.89013333 10.8072949,9.60435556 C10.852207,9.98577778 11.1724805,10.2660444 11.5429395,10.2660444 C11.572207,10.2660444 11.6016504,10.2642667 11.6314453,10.2606222 C12.0382031,10.2118222 12.3287695,9.83848889 12.2805176,9.42711111 C11.7921094,5.27297778 10.2621094,4.05813333 9.64160156,3.73128889 L6.81442383,0.341244444 C6.60199219,0.0864 6.24884766,0.004 5.9474707,0.138755556 C5.64609375,0.273511111 5.46864258,0.593066667 5.51197266,0.923466667 L5.84595703,3.47102222 C5.02549805,3.77395556 4.05808594,4.4464 3.11677734,5.10097778 C2.41259766,5.59066667 1.68451172,6.09715556 1.25182617,6.26897778 C0.693193359,6.49075556 0.0226757812,7.10035556 0.00052734375,8.74497778 C-0.0104589844,9.56177778 0.141943359,10.3041778 0.148359375,10.3352889 C0.226054687,10.7083556 0.571289062,10.9635556 0.946054687,10.9274667 C0.953173828,10.9267556 1.69198242,10.8602667 4.07961914,10.9259556 C4.62761719,10.9410667 5.0944043,10.9476444 5.49175781,10.9486222 C5.49544922,13.3165333 5.87003906,20.2158222 9.99272461,22.2791111 C10.025332,22.7782222 10.0203223,23.3467556 9.94851563,23.9802667 L9.9009668,24.3984 C9.57322266,27.2681778 9.45043945,28.3421333 10.7857617,29.4578667 C10.9186523,29.5688889 11.0857324,29.6296889 11.2581738,29.6296889 L13.4773242,29.6296889 C13.7206055,29.6296889 13.948418,29.5090667 14.0869336,29.3068444 C14.2254492,29.1048 14.2573535,28.8466667 14.1720117,28.6163556 L13.1912402,25.9688 L13.6580273,24.5825778 C15.4422949,26.7101333 17.0658984,27.2732444 17.8942676,27.4175111 C17.9618555,27.5812444 18.0328711,27.7417778 18.1080176,27.8975111 C20.2820801,32.4004444 20.5796777,34.6704889 20.3846484,35.1221333 C20.0994434,35.2668444 19.0003711,35.1769778 18.2658691,35.1168889 C17.1912305,35.0292444 15.9732422,34.9296 14.8088672,35.0897778 C11.9099707,35.4890667 10.897207,37.9496 10.8556348,38.0541333 C10.7634375,38.2854222 10.7908594,38.5478222 10.9287598,38.7544889 C11.0666602,38.9610667 11.2971094,39.0849778 11.5435547,39.0849778 L24.7159863,39.0849778 C24.9313184,39.0849778 25.1360156,38.9903111 25.2768164,38.8256889 C25.417793,38.6610667 25.4809863,38.4425778 25.4499609,38.2271111 L24.4419434,31.1950222 C26.1432422,31.9664 27.637207,32.0895111 28.8961523,31.5596444 C29.4968848,31.3067556 29.9695605,30.9338667 30.337998,30.5312889 C30.6263672,32.0395556 31.2116309,34.0394667 32.3969238,35.7808 C33.4640039,37.3482667 34.8419531,38.4453333 36.4924512,39.0414222 C38.3189941,39.7010667 39.8200781,39.9254222 41.0171484,39.9254222 C43.4853809,39.9254222 44.6614453,38.9714667 44.7324609,38.9116444 C44.9621191,38.7184 45.0547559,38.4048889 44.9677441,38.1160889 Z"></path>
            <path d="M5.19213867,6.06488889 C4.72166016,6.06488889 4.33889648,6.45137778 4.33889648,6.9264 C4.33889648,7.40142222 4.72166016,7.78782222 5.19213867,7.78782222 C5.66261719,7.78782222 6.04538086,7.40142222 6.04538086,6.9264 C6.04538086,6.45137778 5.66261719,6.06488889 5.19213867,6.06488889 Z"></path>
        </g>
    </g>
</svg>