<?xml version="1.0" encoding="UTF-8"?>
<svg width="45px" height="45px" viewBox="0 0 45 45" version="1.1" xmlns="http://www.w3.org/2000/svg" xmlns:xlink="http://www.w3.org/1999/xlink">
    <!-- Generator: Sketch 52.6 (67491) - http://www.bohemiancoding.com/sketch -->
    <title>emoji-prawn</title>
    <desc>Created with Sketch.</desc>
    <g stroke="none" stroke-width="1" fill="none" fill-rule="evenodd">
        <g fill="#EEE9D1" fill-rule="nonzero">
            <path d="M3,4.5 L42.75,4.5 C43.9925537,4.5 45,3.49255369 45,2.25 C45,1.00744631 43.9925537,0 42.75,0 L33.75,0 C33.3358154,0 33,0.335815406 33,0.75 C33,1.16418459 33.3358154,1.5 33.75,1.5 L42.75,1.5 C43.1641846,1.5 43.5,1.83581541 43.5,2.25 C43.5,2.66418459 43.1641846,3 42.75,3 L3,3 C1.34326172,3 0,4.34326172 0,6 C0,7.65673828 1.34326172,9 3,9 L7.53808594,9 C7.59228516,10.0173339 7.76843259,11.0247802 8.06323238,12 L6.75,12 C6.33581541,12 6,12.3358154 6,12.75 C6,13.1641846 6.33581541,13.5 6.75,13.5 L8.64440916,13.5 C8.87915044,14.017456 9.14831541,14.5184326 9.45007322,15 L7.5,15 C7.08581541,15 6.75,15.3358154 6.75,15.75 C6.75,16.1641846 7.08581541,16.5 7.5,16.5 L10.5,16.5 C10.5142823,16.5 10.5256348,16.4926758 10.5388183,16.4915771 C12.9550781,19.3502198 16.5073242,20.9992676 20.25,21 L24,21 L22.7999268,21.9001464 C22.4813232,22.1389161 22.4051513,22.5849609 22.6259766,22.9163818 L24.1259766,25.1663818 C24.355957,25.5109864 24.8217773,25.6040039 25.1663818,25.3740234 C25.5109864,25.144043 25.6040039,24.6782227 25.3740234,24.3336182 L24.2669678,22.6739502 L26.4598388,21.0300293 C27.4782714,21.1043701 28.472168,21.3786621 29.3851318,21.8364258 L27.2999268,23.4001464 C26.9813232,23.6389161 26.9051513,24.0849609 27.1259766,24.4163818 L28.6259766,26.6663818 C28.855957,27.0109864 29.3217773,27.1040039 29.6663818,26.8740234 C30.0109864,26.644043 30.1040039,26.1782227 29.8740234,25.8336182 L28.7669678,24.1739502 L30.7401123,22.6948242 C31.6142578,23.3843994 32.3331299,24.2501221 32.8498536,25.2359619 L30.2999268,27.1501464 C29.9813232,27.3889161 29.9051513,27.8349609 30.1259766,28.1663818 L31.6259766,30.4163818 C31.855957,30.7609864 32.3217773,30.8540039 32.6663818,30.6240234 C33.0109864,30.394043 33.1040039,29.9282227 32.8740234,29.5836182 L31.7669678,27.9239502 L33.4313964,26.6759033 C34.130127,29.0548096 33.6657714,31.6237793 32.1782227,33.6068115 C30.6903076,35.5902099 28.354248,36.755127 25.875,36.75 L22.875,36.75 C22.7739258,36.75 22.6746826,36.7584229 22.5750732,36.7650146 C22.5494385,36.7650146 22.5270996,36.75 22.5,36.75 L21.1582031,36.75 C18.0292969,36.7532959 15.1065674,35.1892089 13.3740234,32.5836182 C13.225708,32.3609619 12.9700928,32.2342529 12.703125,32.2510987 C12.4361573,32.2679443 12.1981201,32.4254151 12.0787354,32.664917 L9.90966797,37.003418 C9.05383303,38.7161865 9.14538572,40.7497558 10.1517334,42.3782959 C11.1577148,44.0072021 12.9353027,44.9989013 14.8498536,45 L22.5,45 C22.5270996,45 22.5494385,44.9871826 22.5750732,44.9849854 C22.6746826,44.9915771 22.7739258,45 22.875,45 L26.25,45 C36.6053467,45 45,36.6053467 45,26.25 C45,15.8946533 36.6053467,7.5 26.25,7.5 L3,7.5 C2.17163081,7.5 1.5,6.82836919 1.5,6 C1.5,5.17163081 2.17163081,4.5 3,4.5 Z M33.0673828,34.875 L37.5,39.3105469 C34.7647705,41.6762695 31.3527833,43.118042 27.75,43.4311523 L27.75,38.0610352 C29.8322754,37.6318359 31.7069092,36.508667 33.0673828,34.875 Z M20.25,40.875 C20.2536621,39.864624 20.8370362,38.946167 21.75,38.5133057 L21.75,43.2381592 C20.8366699,42.8049317 20.2532959,41.8857422 20.25,40.875 Z M10.9822998,40.5802002 C10.7036133,39.6119385 10.7991943,38.5744629 11.25,37.6732178 L11.388794,37.3963623 C12.6679687,38.9146729 14.3920898,39.9924317 16.3168945,40.4776612 C16.3769531,40.4923096 16.4384766,40.5 16.5,40.5 C16.8782959,40.4992676 17.1968994,40.2165527 17.243042,39.8411865 C17.2888183,39.4654541 17.0478516,39.114624 16.6809082,39.0223388 C14.908081,38.5770263 13.3421631,37.5366211 12.2446289,36.0750732 L12.1281739,35.9197998 L12.8781739,34.4197998 C14.6297607,36.4844971 17.0917969,37.8178711 19.7783203,38.1569824 C18.4376221,39.6741943 18.4024658,41.9421386 19.6959229,43.5 L14.8498536,43.5 C13.0554199,43.4934082 11.4803467,42.3043213 10.9822998,40.5802002 Z M23.25,43.5 L23.25,38.25 L25.875,38.25 C26.0017089,38.25 26.1247558,38.2357177 26.25,38.2313232 L26.25,43.5 L23.25,43.5 Z M38.5935058,38.2829589 L33.9433594,33.6331787 C35.3851318,31.2194824 35.6513672,28.2821045 34.6680908,25.6486817 L41.7095948,18.6068115 C44.9622803,25.1612549 43.7131348,33.0556641 38.5964355,38.2858886 L38.5935058,38.2829589 Z M40.9500732,17.2379151 L33.9876709,24.2003174 C33.2955322,23.0013427 32.3481445,21.9693604 31.2128906,21.1768799 C31.1748047,21.1431885 31.1334229,21.1135254 31.0891114,21.088623 C29.8652344,20.2672119 28.4637451,19.7486572 27,19.5750732 L27,9.01867678 C32.7264404,9.27209475 37.9533692,12.3515625 40.9500732,17.2379151 Z M25.5,9 L25.5,19.5 L20.25,19.5 C14.3305664,19.4926758 9.42663572,14.9055176 9.02490234,9 L25.5,9 Z"></path>
            <path d="M19.5,15 C20.7425537,15 21.75,13.9925537 21.75,12.75 C21.75,11.5074463 20.7425537,10.5 19.5,10.5 C18.2574463,10.5 17.25,11.5074463 17.25,12.75 C17.25,13.9925537 18.2574463,15 19.5,15 Z M19.5,12 C19.9141846,12 20.25,12.3358154 20.25,12.75 C20.25,13.1641846 19.9141846,13.5 19.5,13.5 C19.0858154,13.5 18.75,13.1641846 18.75,12.75 C18.75,12.3358154 19.0858154,12 19.5,12 Z"></path>
        </g>
    </g>
</svg>