<svg xmlns="http://www.w3.org/2000/svg" viewBox="0 0 45 45"><defs><style>.a{fill:#eee9d1;}</style></defs><title>emoji-feedback</title><path class="a" d="M41.91,21.45A.8.8,0,0,0,41,22,2.46,2.46,0,0,1,39,23.18a5.64,5.64,0,0,1-3-.76,8.29,8.29,0,0,0-3.5-1A6.42,6.42,0,0,0,29,22.64a16.58,16.58,0,0,0-3,2.88.82.82,0,0,0,0,1.11.8.8,0,0,0,1.11,0C28.58,24.94,30.5,22.71,33,23a13.24,13.24,0,0,1,3.31,1.24,5.58,5.58,0,0,0,3.51.35,3.7,3.7,0,0,0,2.65-2.2A.78.78,0,0,0,41.91,21.45Z"/><path class="a" d="M18.63,13.17a8.45,8.45,0,0,0,1.76-3.4,4.87,4.87,0,0,0-.79-3.53,12.23,12.23,0,0,0-3.09-2.91.78.78,0,0,0-1.07.28.8.8,0,0,0,.28,1.07c1.75,1.31,4,3.13,2.89,5.57-.93,2.17-3.37,3.91-3.06,6.51a3,3,0,0,0,2.15,2.72A.78.78,0,0,0,18.12,18a1.61,1.61,0,0,1-1-1.83A6.76,6.76,0,0,1,18.63,13.17Z"/><path class="a" d="M29.89,15.07a3.62,3.62,0,0,0-1.6-2.56A3.38,3.38,0,0,0,26.72,12a4.48,4.48,0,0,1,1.51-2.26.81.81,0,0,0,.28-1.07.79.79,0,0,0-1.07-.28,6.36,6.36,0,0,0-2.39,3.86,4.66,4.66,0,0,0-2.46,2c-1.41,2.51-.52,5.45.9,7.73.53.85,1.89.07,1.35-.79a7,7,0,0,1-1.3-5.06A3.58,3.58,0,0,1,25,14a5.9,5.9,0,0,0,.73,2.46c.58,1.05,1.69,1.92,2.91,1.33A2.65,2.65,0,0,0,29.89,15.07Zm-1.75,1.08c-.42.61-.87,0-1.11-.48a4.41,4.41,0,0,1-.53-1.91v-.21h.11C27.76,13.65,28.88,15.11,28.14,16.15Z"/><path class="a" d="M33.08,17.21a.79.79,0,0,0,0,1.57A.79.79,0,0,0,33.08,17.21Z"/><path class="a" d="M34.06,15a.78.78,0,0,0,0,1.56A.78.78,0,0,0,34.06,15Z"/><path class="a" d="M35.59,17a.78.78,0,0,0,0,1.56A.78.78,0,0,0,35.59,17Z"/><path class="a" d="M9.5,10.53a.79.79,0,0,0,0,1.57A.79.79,0,0,0,9.5,10.53Z"/><path class="a" d="M10.48,8.26a.79.79,0,0,0,0,1.57A.79.79,0,0,0,10.48,8.26Z"/><path class="a" d="M12,10.26a.79.79,0,0,0,0,1.57A.79.79,0,0,0,12,10.26Z"/><path class="a" d="M24.64,30.19,14.22,19.78A.78.78,0,0,0,13,20L12,21.86,2.58,40.78a.79.79,0,0,0,.7,1.13.72.72,0,0,0,.35-.08l20.8-10.38a.82.82,0,0,0,.43-.58A.81.81,0,0,0,24.64,30.19ZM5,39.38l3.39-6.79,1.15,4.52Zm13-6.46-1.34-3.26a.78.78,0,1,0-1.45.6l1.38,3.36L11,36.4l-1.5-6,3.16-6.34.87,2.12a.79.79,0,0,0,.73.49.8.8,0,0,0,.3-.06.77.77,0,0,0,.42-1l-1.39-3.39.29-.58,8.88,8.87Z"/><path class="a" d="M39.27,28.55a3.17,3.17,0,1,0,3.17,3.17A3.18,3.18,0,0,0,39.27,28.55Zm0,4.77a1.61,1.61,0,1,1,1.6-1.6A1.61,1.61,0,0,1,39.27,33.32Z"/><path class="a" d="M38.42,6.47,35.27,3.32a.78.78,0,0,0-1.11,0L31,6.47a.78.78,0,0,0,0,1.11l3.15,3.15a.78.78,0,0,0,.56.23.74.74,0,0,0,.55-.23l3.15-3.15a.78.78,0,0,0,0-1.11Zm-3.7,2.6-2-2,2-2,2,2.05Z"/><path class="a" d="M15,27.18a.79.79,0,0,0,0,1.57A.79.79,0,0,0,15,27.18Z"/></svg>