<svg id="Layer_1" data-name="Layer 1" xmlns="http://www.w3.org/2000/svg" viewBox="0 0 45 45"><title>sentiemoji-spider</title><path d="M35.15,21.79a1.21,1.21,0,0,0-.65-.43L30,20.23A6.22,6.22,0,0,0,29.15,19h.38a1.15,1.15,0,0,0,.37-.06l7-2.34a1.16,1.16,0,0,0,.74-.74l2.35-7a1.17,1.17,0,0,0-2.23-.74l-2.15,6.47-6.3,2.1h-1a7.64,7.64,0,0,0-.07-1.08l4-1.32a1.17,1.17,0,0,0,.76-1.4L30.67,3.39A1.17,1.17,0,1,0,28.39,4l2.09,8.41-2.82.94a7,7,0,0,0-.93-1.53A5.74,5.74,0,0,0,26,11V8.44a1.18,1.18,0,0,0-2.35,0V9.75a5,5,0,0,0-2.34,0V8.44a1.18,1.18,0,0,0-2.35,0V11a5.74,5.74,0,0,0-.71.76,7,7,0,0,0-.93,1.53l-2.82-.94L16.61,4a1.17,1.17,0,1,0-2.28-.56L12,12.84a1.17,1.17,0,0,0,.76,1.4l4,1.32a7.64,7.64,0,0,0-.07,1.08h-1l-6.3-2.1L7.21,8.07A1.17,1.17,0,0,0,5,8.81l2.35,7a1.16,1.16,0,0,0,.74.74l7,2.34a1.15,1.15,0,0,0,.37.06h.38A6.22,6.22,0,0,0,15,20.23L10.5,21.36a1.21,1.21,0,0,0-.65.43L2.74,31.17A1.18,1.18,0,0,0,3,32.81a1.19,1.19,0,0,0,.71.24,1.16,1.16,0,0,0,.94-.47l6.86-9,2.86-.72c0,.28,0,.56,0,.85a12.53,12.53,0,0,0,.16,2l-4.33,2.89a1.16,1.16,0,0,0-.5.74L7.29,41.1a1.17,1.17,0,0,0,.92,1.38,1.19,1.19,0,0,0,1.38-.92l2.25-11.32,3.22-2.15c1.15,3.44,3.8,7.3,7.44,7.3s6.28-3.85,7.44-7.3l3.22,2.15,2.25,11.32a1.17,1.17,0,0,0,2.3-.46L35.37,29.3a1.16,1.16,0,0,0-.5-.74l-4.33-2.89a12.53,12.53,0,0,0,.16-2c0-.29,0-.57,0-.85l2.86.72,6.86,9a1.17,1.17,0,1,0,1.87-1.41Zm-6.79,1.88a10.38,10.38,0,0,1-.14,1.64,10.12,10.12,0,0,0-5.72-1.64,10.12,10.12,0,0,0-5.72,1.64,10.38,10.38,0,0,1-.14-1.64C16.64,20.79,18,19,22.5,19S28.36,20.76,28.36,23.67ZM17.44,27.79A7.21,7.21,0,0,1,22.5,26a7.21,7.21,0,0,1,5.06,1.77,13.92,13.92,0,0,1-.65,1.47,11.25,11.25,0,0,0-8.82,0A13.07,13.07,0,0,1,17.44,27.79ZM26,16.64c0,.15,0,.29,0,.44a12.57,12.57,0,0,0-3.5-.44,12.57,12.57,0,0,0-3.5.44c0-.15,0-.29,0-.44C19,14.27,20.43,12,22.5,12,24.31,12,26,13.92,26,16.64ZM22.5,33.05a4.31,4.31,0,0,1-3.1-1.8,9,9,0,0,1,6.2,0A4.31,4.31,0,0,1,22.5,33.05Z" style="fill:#eee9d1"/></svg>