<svg id="Layer_1" data-name="Layer 1" xmlns="http://www.w3.org/2000/svg" viewBox="0 0 45 45"><defs><style>.cls-1,.cls-3{fill:#eee9d1;}.cls-2{fill:none;stroke-width:1.7px;}.cls-2,.cls-3{stroke:#eee9d1;stroke-linejoin:round;}</style></defs><title>emoji-joy</title><path class="cls-1" d="M29.84,7.92H15.16A12.68,12.68,0,0,0,2.5,20.58v3.84A12.68,12.68,0,0,0,15.16,37.08H29.84A12.68,12.68,0,0,0,42.5,24.42V20.58A12.68,12.68,0,0,0,29.84,7.92Zm10.63,16.5A10.64,10.64,0,0,1,29.84,35.05H15.16A10.64,10.64,0,0,1,4.53,24.42V20.58A10.64,10.64,0,0,1,15.16,10H29.84A10.64,10.64,0,0,1,40.47,20.58Z"/><path class="cls-2" d="M26.24,29.42h0a6.92,6.92,0,0,1-6.92-6.92H33.16A6.92,6.92,0,0,1,26.24,29.42Z"/><path class="cls-2" d="M17.39,24a2.24,2.24,0,0,1-3.3-3c.83-.91,4.65-1.78,4.65-1.78S18.22,23.05,17.39,24Z"/><path class="cls-2" d="M34.74,23.47a2.24,2.24,0,1,0,3.3-3c-.83-.92-4.65-1.78-4.65-1.78S33.91,22.55,34.74,23.47Z"/><path class="cls-3" d="M34.15,18.12a.55.55,0,0,1-.48-.28,2,2,0,0,0-1.77-1,2.09,2.09,0,0,0-1.78,1.05.56.56,0,0,1-1-.57,3.24,3.24,0,0,1,2.74-1.59,3.14,3.14,0,0,1,2.74,1.61.55.55,0,0,1-.22.75A.52.52,0,0,1,34.15,18.12Z"/><path class="cls-3" d="M22.67,18.12a.55.55,0,0,1-.48-.28,2,2,0,0,0-1.77-1,2.11,2.11,0,0,0-1.78,1.05.56.56,0,0,1-1-.57,3.24,3.24,0,0,1,2.74-1.59,3.14,3.14,0,0,1,2.74,1.61.55.55,0,0,1-.22.75A.5.5,0,0,1,22.67,18.12Z"/></svg>