<?xml version="1.0" encoding="UTF-8"?>
<svg width="45px" height="45px" viewBox="0 0 45 45" version="1.1" xmlns="http://www.w3.org/2000/svg" xmlns:xlink="http://www.w3.org/1999/xlink">
    <!-- Generator: Sketch 52.6 (67491) - http://www.bohemiancoding.com/sketch -->
    <title>emoji-flag</title>
    <desc>Created with Sketch.</desc>
    <g stroke="none" stroke-width="1" fill="none" fill-rule="evenodd">
        <g transform="translate(0.000000, 7.000000)" fill="#EEE9D1">
            <path d="M15.287959,22.2985689 L13.6286719,22.2985689 L13.6286719,20.6592874 C13.6286719,20.2851527 13.3216699,19.9819551 12.9430371,19.9819551 C12.5643164,19.9819551 12.2574023,20.2852395 12.2574023,20.6592874 L12.2574023,22.298482 L10.5981152,22.298482 C10.2193945,22.298482 9.91248047,22.6017665 9.91248047,22.9758144 C9.91248047,23.3499491 10.2194824,23.6531467 10.5981152,23.6531467 L12.2574023,23.6531467 L12.2574023,25.2924281 C12.2574023,25.6665629 12.5644043,25.9697605 12.9430371,25.9697605 C13.3217578,25.9697605 13.6286719,25.666476 13.6286719,25.2924281 L13.6286719,23.6532335 L15.287959,23.6532335 C15.6666797,23.6532335 15.9735938,23.3499491 15.9735938,22.9759012 C15.9735938,22.6017665 15.6666797,22.2985689 15.287959,22.2985689 Z"></path>
            <path d="M36.446748,5.09184431 L35.4852246,5.09184431 L35.4852246,4.14196407 C35.4852246,3.76782934 35.1782227,3.46463174 34.7995898,3.46463174 C34.4208691,3.46463174 34.1139551,3.76791617 34.1139551,4.14196407 L34.1139551,5.09184431 L33.1524316,5.09184431 C32.7737109,5.09184431 32.4667969,5.39512874 32.4667969,5.76917665 C32.4667969,6.14331138 32.7737988,6.44650898 33.1524316,6.44650898 L34.1139551,6.44650898 L34.1139551,7.39638922 C34.1139551,7.77052395 34.420957,8.07372156 34.7995898,8.07372156 C35.1783105,8.07372156 35.4852246,7.77043713 35.4852246,7.39638922 L35.4852246,6.44650898 L36.446748,6.44650898 C36.8254687,6.44650898 37.1323828,6.14322455 37.1323828,5.76917665 C37.1324707,5.39504192 36.8254687,5.09184431 36.446748,5.09184431 Z"></path>
            <path d="M36.446748,22.5991617 L35.4852246,22.5991617 L35.4852246,21.6491946 C35.4852246,21.2750599 35.1782227,20.9718623 34.7995898,20.9718623 C34.4208691,20.9718623 34.1139551,21.2751467 34.1139551,21.6491946 L34.1139551,22.5990749 L33.1524316,22.5990749 C32.7737109,22.5990749 32.4667969,22.9023593 32.4667969,23.2764072 C32.4667969,23.6505419 32.7737988,23.9537395 33.1524316,23.9537395 L34.1139551,23.9537395 L34.1139551,24.9036198 C34.1139551,25.2777545 34.420957,25.5811257 34.7995898,25.5811257 C35.1782227,25.5811257 35.4852246,25.2778413 35.4852246,24.9037934 L35.4852246,23.9539132 L36.446748,23.9539132 C36.8254687,23.9539132 37.1323828,23.6506287 37.1323828,23.2765808 C37.1324707,22.9024461 36.8254687,22.5991617 36.446748,22.5991617 Z"></path>
            <path d="M30.7504688,14.1180509 L29.7889453,14.1180509 L29.7889453,13.1681707 C29.7889453,12.7940359 29.4819434,12.4908383 29.1033105,12.4908383 C28.7245898,12.4908383 28.4176758,12.7941228 28.4176758,13.1681707 L28.4176758,14.1180509 L27.4561523,14.1180509 C27.0774316,14.1180509 26.7705176,14.4213353 26.7705176,14.7953832 C26.7705176,15.169518 27.0775195,15.4727156 27.4561523,15.4727156 L28.4176758,15.4727156 L28.4176758,16.4225958 C28.4176758,16.7967305 28.7246777,17.0999281 29.1033105,17.0999281 C29.4819434,17.0999281 29.7889453,16.7966437 29.7889453,16.4225958 L29.7889453,15.4727156 L30.7504688,15.4727156 C31.1291895,15.4727156 31.4361035,15.1694311 31.4361035,14.7953832 C31.4361035,14.4213353 31.1291895,14.1180509 30.7504688,14.1180509 Z"></path>
            <path d="M42.3540527,9.84532635 L41.3925293,9.84532635 L41.3925293,8.89544611 C41.3925293,8.5213982 41.0855273,8.21811377 40.7068945,8.21811377 C40.3281738,8.21811377 40.0212598,8.5213982 40.0212598,8.89544611 L40.0212598,9.84532635 L39.0597363,9.84532635 C38.6810156,9.84532635 38.3741016,10.1486108 38.3741016,10.5226587 C38.3741016,10.8967934 38.6811035,11.199991 39.0597363,11.199991 L40.0212598,11.199991 L40.0212598,12.1498713 C40.0212598,12.524006 40.3282617,12.8272036 40.7068945,12.8272036 C41.0856152,12.8272036 41.3925293,12.5239192 41.3925293,12.1498713 L41.3925293,11.199991 L42.3540527,11.199991 C42.7327734,11.199991 43.0396875,10.8967066 43.0396875,10.5226587 C43.0396875,10.1486108 42.7327734,9.84532635 42.3540527,9.84532635 Z"></path>
            <path d="M39.4004004,16.4507275 L39.177334,16.4507275 L39.177334,16.2303623 C39.177334,15.8562275 38.870332,15.5530299 38.4916992,15.5530299 C38.1129785,15.5530299 37.8060645,15.8563144 37.8060645,16.2303623 L37.8060645,16.4507275 L37.582998,16.4507275 C37.2042773,16.4507275 36.8973633,16.754012 36.8973633,17.1280599 C36.8973633,17.5021946 37.2043652,17.8053922 37.582998,17.8053922 L37.8060645,17.8053922 L37.8060645,18.0257575 C37.8060645,18.3998922 38.1130664,18.7030898 38.4916992,18.7030898 C38.8704199,18.7030898 39.177334,18.3998054 39.177334,18.0257575 L39.177334,17.8053922 L39.4004004,17.8053922 C39.7791211,17.8053922 40.0860352,17.5021078 40.0860352,17.1280599 C40.086123,16.7539251 39.7791211,16.4507275 39.4004004,16.4507275 Z"></path>
            <path d="M42.8692676,0.0707634731 L37.4796387,0.0707634731 C37.100918,0.0707634731 36.7940039,0.374047904 36.7940039,0.748095808 C36.7940039,1.12223054 37.1010059,1.42542814 37.4796387,1.42542814 L42.8692676,1.42542814 C43.2880664,1.42542814 43.6287305,1.76205389 43.6287305,2.17560778 L43.6287305,26.8241317 C43.6287305,27.2378593 43.2879785,27.5743114 42.8692676,27.5743114 L12.0570996,27.5743114 C11.6783789,27.5743114 11.3714648,27.8775958 11.3714648,28.2516437 C11.3714648,28.6256916 11.6784668,28.928976 12.0570996,28.928976 L42.8691797,28.928976 C44.0441016,28.928976 45,27.9846527 45,26.8240449 L45,2.17569461 C45,1.015 44.0441895,0.0707634731 42.8692676,0.0707634731 Z"></path>
            <path d="M35.053418,0.0707634731 L2.13082031,0.0707634731 C1.39649414,0.0707634731 0.747685547,0.439688623 0.364394531,0.999718563 C0.134384766,1.33582335 0,1.74060778 0,2.17595509 L8.7890625e-05,26.8243054 C8.7890625e-05,27.985 0.955986328,28.9292365 2.13082031,28.9292365 L9.78916992,28.9292365 C10.1678906,28.9292365 10.4748047,28.6259521 10.4748047,28.2519042 C10.4748047,27.8778563 10.1678027,27.5746587 9.78916992,27.5746587 L2.13082031,27.5746587 C1.71202148,27.5746587 1.37144531,27.2380329 1.37144531,26.824479 L1.37144531,16.8800838 L25.1998242,16.8800838 C25.5785449,16.8800838 25.885459,16.5767994 25.885459,16.2027515 L25.885459,1.42551497 L35.0533301,1.42551497 C35.4320508,1.42551497 35.7389648,1.12223054 35.7389648,0.748182635 C35.7390527,0.374047904 35.4320508,0.0707634731 35.053418,0.0707634731 Z M15.2639648,1.42551497 L19.8990527,1.42551497 L15.2639648,4.35963772 L15.2639648,1.42551497 Z M10.6225488,1.4256018 L10.6225488,4.36024551 L5.98649414,1.4256018 L10.6225488,1.4256018 Z M1.37144531,2.17586826 C1.37144531,2.04667066 1.40466797,1.92485329 1.46320312,1.81849102 C1.59196289,1.58466766 1.84297852,1.4256018 2.13082031,1.4256018 L3.44478516,1.4256018 L10.6225488,5.96922455 L10.6225488,6.18273054 L7.42359375,6.18273054 L1.37144531,2.35151796 L1.37144531,2.17586826 Z M1.37144531,3.96067066 L4.88188477,6.18281737 L1.37144531,6.18281737 L1.37144531,3.96067066 Z M1.37144531,10.7680299 L5.1402832,10.7680299 L1.37144531,13.1538443 L1.37144531,10.7680299 Z M10.6225488,15.5252455 L6.24506836,15.5252455 L10.6225488,12.7541826 L10.6225488,15.5252455 Z M10.6225488,11.1452036 L3.70318359,15.5252455 L1.37144531,15.5252455 L1.37144531,14.7628234 L7.68199219,10.7680299 L10.6225488,10.7680299 L10.6225488,11.1452036 Z M15.2639648,15.5252455 L15.2639648,12.7547904 L19.6403906,15.5252455 L15.2639648,15.5252455 Z M24.5141895,15.5252455 L22.1822754,15.5252455 L15.2639648,11.1458114 L15.2639648,10.7680299 L18.2034668,10.7680299 L24.5141016,14.7629102 L24.5141895,15.5252455 Z M24.5141895,13.1539311 L20.7452637,10.7680299 L24.5141895,10.7680299 L24.5141895,13.1539311 Z M24.5141895,9.41327844 L14.5783301,9.41327844 C14.1996094,9.41327844 13.8926953,9.71656287 13.8926953,10.0906108 L13.8926953,15.5251587 L11.9939063,15.5251587 L11.9939063,10.0906108 C11.9939063,9.71647605 11.6869043,9.41327844 11.3082715,9.41327844 L1.37144531,9.41327844 L1.37144531,7.53748204 L11.3082715,7.53748204 C11.6869922,7.53748204 11.9939063,7.2341976 11.9939063,6.8601497 L11.9939063,1.4256018 L13.8926953,1.4256018 L13.8926953,5.58640719 C13.8925195,5.59734731 13.8923437,5.60828743 13.8926953,5.61922754 L13.8926953,6.8601497 C13.8926953,7.23428443 14.1996973,7.53748204 14.5783301,7.53748204 L24.5141895,7.53748204 L24.5141895,9.41327844 Z M24.5141895,6.18281737 L21.0036621,6.18281737 L24.5141895,3.96058383 L24.5141895,6.18281737 Z M18.4619531,6.18281737 L15.2639648,6.18281737 L15.2639648,5.96870359 L22.4408496,1.4256018 L24.5141016,1.4256018 L24.5141016,2.35160479 L18.4619531,6.18281737 Z" fill-rule="nonzero"></path>
        </g>
    </g>
</svg>