<?xml version="1.0" encoding="UTF-8"?>
<svg width="45px" height="45px" viewBox="0 0 45 45" version="1.1" xmlns="http://www.w3.org/2000/svg" xmlns:xlink="http://www.w3.org/1999/xlink">
    <!-- Generator: Sketch 52.6 (67491) - http://www.bohemiancoding.com/sketch -->
    <title>emoji-beach</title>
    <desc>Created with Sketch.</desc>
    <g stroke="none" stroke-width="1" fill="none" fill-rule="evenodd">
        <g transform="translate(0.000000, 3.000000)" fill="#EEE9D1">
            <path d="M7.52660156,3.29646018 C5.17517578,3.29646018 3.26197266,5.22274336 3.26197266,7.59044248 C3.26197266,9.95823009 5.17508789,11.8844248 7.52660156,11.8844248 C9.87820312,11.8844248 11.7913184,9.95814159 11.7913184,7.59044248 C11.7913184,5.22274336 9.87820312,3.29646018 7.52660156,3.29646018 Z M7.52668945,10.5524779 C5.90458008,10.5524779 4.58481445,9.22380531 4.58481445,7.59044248 C4.58481445,5.95707965 5.90449219,4.62840708 7.52668945,4.62840708 C9.14888672,4.62840708 10.4685645,5.95716814 10.4685645,7.59044248 C10.4685645,9.22371681 9.14879883,10.5524779 7.52668945,10.5524779 Z" fill-rule="nonzero"></path>
            <path d="M7.52668945,0.0119469027 C7.16132813,0.0119469027 6.8653125,0.310088496 6.8653125,0.677876106 L6.8653125,2.01752212 C6.8653125,2.38530973 7.16132812,2.68345133 7.52668945,2.68345133 C7.89205078,2.68345133 8.18806641,2.38530973 8.18806641,2.01752212 L8.18806641,0.677876106 C8.18806641,0.310088496 7.89205078,0.0119469027 7.52668945,0.0119469027 Z"></path>
            <path d="M12.8489941,2.23159292 C12.5905957,1.97159292 12.1718848,1.97150442 11.9134863,2.23159292 L10.9727051,3.17884956 C10.7143945,3.43893805 10.7143945,3.86061947 10.9727051,4.12061947 C11.1019043,4.25070796 11.2710938,4.31566372 11.440459,4.31566372 C11.6096484,4.31566372 11.7790137,4.25070796 11.9082129,4.12070796 L12.8489941,3.17345133 C13.1073047,2.91336283 13.1073047,2.49168142 12.8489941,2.23159292 Z"></path>
            <path d="M14.392002,6.92451327 L13.0616016,6.92451327 C12.6962402,6.92451327 12.4002246,7.22265487 12.4002246,7.59044248 C12.4002246,7.95823009 12.6962402,8.25637168 13.0616016,8.25637168 L14.392002,8.25637168 C14.7573633,8.25637168 15.0533789,7.95823009 15.0533789,7.59044248 C15.0533789,7.22265487 14.7573633,6.92451327 14.392002,6.92451327 Z"></path>
            <path d="M12.8489941,12.0074336 L11.9082129,11.0602655 C11.6497266,10.800177 11.2310156,10.800177 10.9727051,11.0602655 C10.7143945,11.320354 10.7143945,11.7420354 10.9727051,12.0020354 L11.9134863,12.949292 C12.0426855,13.079292 12.2119629,13.1443363 12.3812402,13.1443363 C12.5505176,13.1443363 12.7197949,13.0793805 12.8489941,12.949292 C13.1073047,12.6892035 13.1073047,12.2675221 12.8489941,12.0074336 Z"></path>
            <path d="M7.52668945,12.4975221 C7.16132813,12.4975221 6.8653125,12.7956637 6.8653125,13.1634513 L6.8653125,14.5030973 C6.8653125,14.870885 7.16132812,15.1690265 7.52668945,15.1690265 C7.89205078,15.1690265 8.18806641,14.870885 8.18806641,14.5030973 L8.18806641,13.1634513 C8.18806641,12.7956637 7.89205078,12.4975221 7.52668945,12.4975221 Z"></path>
            <path d="M4.08076172,11.0602655 C3.82245117,10.800177 3.40374023,10.800177 3.1453418,11.0602655 L2.20456055,12.0074336 C1.94616211,12.2675221 1.94616211,12.6892035 2.20447266,12.949292 C2.33367187,13.079292 2.50286133,13.1443363 2.67222656,13.1443363 C2.84141602,13.1443363 3.01078125,13.0793805 3.13998047,12.949292 L4.08076172,12.0020354 C4.33898438,11.7419469 4.33898438,11.3202655 4.08076172,11.0602655 Z"></path>
            <path d="M1.99177734,6.92451327 L0.661376953,6.92451327 C0.296015625,6.92451327 0,7.22265487 0,7.59044248 C0,7.95823009 0.296015625,8.25637168 0.661376953,8.25637168 L1.99177734,8.25637168 C2.35713867,8.25637168 2.6531543,7.95823009 2.6531543,7.59044248 C2.6531543,7.22265487 2.35713867,6.92451327 1.99177734,6.92451327 Z"></path>
            <path d="M4.08076172,3.17884956 L3.13989258,2.23159292 C2.88149414,1.97150442 2.4627832,1.97150442 2.20447266,2.23159292 C1.94616211,2.49168142 1.94616211,2.91336283 2.20447266,3.17345133 L3.14525391,4.12070796 C3.27445312,4.25070796 3.44373047,4.31566372 3.61300781,4.31566372 C3.78219727,4.31566372 3.9515625,4.25070796 4.08076172,4.12061947 C4.33898437,3.86053097 4.33898437,3.43884956 4.08076172,3.17884956 Z"></path>
            <path d="M44.6797266,37.8035398 C43.5269531,37.0162832 42.1903125,36.6597345 40.8705469,36.7315929 C39.6522949,35.0419469 37.3542188,33.5934513 34.1880469,32.5258407 C32.2227246,31.8631858 30.0294141,31.3848673 27.6974121,31.100885 L32.4360352,19.13 C33.1510254,19.6499115 33.7750488,20.2674336 34.2850781,20.9660177 C34.4536523,21.1969912 34.7137207,21.3276991 35.0005957,21.2573451 C36.5656641,20.9715929 38.2253027,21.1546903 39.8018848,21.7873451 C41.390332,22.4247788 42.7278516,23.4516814 43.6697754,24.7569912 C43.7960742,24.9319469 43.9962012,25.0314159 44.2047656,25.0314159 C44.2576758,25.0314159 44.3111133,25.0250442 44.3640234,25.0117699 C44.6254102,24.9465487 44.8214063,24.7281416 44.8595508,24.4597345 C44.8845117,24.2835398 45.4571191,20.0915929 44.0928809,15.5247788 C43.9877637,15.1725664 43.6180957,14.9730088 43.269082,15.0788496 C42.9192773,15.1847788 42.7209961,15.5561947 42.8262891,15.9083186 C43.6225781,18.5741593 43.709502,21.1517699 43.6606348,22.7241593 C42.7166895,21.8043363 41.5741992,21.0646903 40.2916113,20.55 C38.8335059,19.9648673 37.3079883,19.7161062 35.8229883,19.8154867 C35.8342383,19.7810619 35.8444336,19.7474336 35.8555078,19.7131858 C36.3723047,18.1234513 36.7577051,16.4851327 36.9472852,14.8220354 C37.1206934,13.300177 37.1368652,11.7629204 36.946582,10.2418584 C36.8363672,9.36097345 36.6488086,8.48973451 36.3796875,7.6440708 C36.3777539,7.6379646 36.3758203,7.63141593 36.3737988,7.62530973 C38.7470215,8.9199115 40.5712793,10.8275221 41.8094824,13.3141593 C41.9731348,13.6429204 42.3705762,13.7757522 42.6970898,13.6109735 C43.0236035,13.4461947 43.1555273,13.0460177 42.991875,12.7171681 C41.3506055,9.42106195 38.7754102,7.05017699 35.3356348,5.66955752 C30.6046582,3.77123894 25.6806738,4.39566372 21.0968262,7.47539823 C17.6750684,9.77424779 15.6714258,12.5938938 15.5877539,12.7127434 C15.4320996,12.9339823 15.425332,13.2281416 15.5704395,13.4564602 C15.7155469,13.6847788 15.9832617,13.8018584 16.2484277,13.7522124 C17.824043,13.4572566 19.4964258,13.6382301 21.0847852,14.2756637 C22.6501172,14.9038938 23.9719043,15.9102655 24.9116309,17.1886726 C25.0944434,17.4373451 25.3611035,17.5902655 25.674082,17.4966372 C26.5140527,17.3467257 27.3807422,17.3318584 28.2469922,17.4484956 L22.9627441,30.7984956 C22.8294141,30.7973451 22.6965234,30.7949558 22.5627539,30.7949558 C19.5143555,30.7949558 16.6010449,31.100708 13.9037695,31.7037168 C13.5471973,31.7834513 13.3222852,32.139115 13.4015625,32.4982301 C13.480752,32.8572566 13.8333691,33.0838053 14.1905566,33.0039823 C16.7571387,32.430177 19.6522559,32.1269027 22.5627539,32.1269027 C23.9422852,32.1269027 25.3226953,32.1929204 26.6955469,32.3302655 C26.7004688,32.330708 26.7053027,32.3306195 26.7103125,32.3309735 C29.2632715,32.5858407 31.655918,33.0763717 33.7678418,33.7885841 C36.2890723,34.6387611 38.2355859,35.759115 39.3779883,37.0007965 C38.8016016,37.1810619 38.2441113,37.4483186 37.7240625,37.8033628 C36.0624902,38.9379646 33.9152344,38.9379646 32.2535742,37.8033628 C30.1407715,36.3606195 27.4105371,36.360708 25.297998,37.8033628 C23.6364258,38.9379646 21.4891699,38.9379646 19.8275098,37.8033628 C17.7147949,36.3606195 14.9845605,36.360708 12.8719336,37.8033628 C11.2103613,38.9379646 9.06310547,38.9379646 7.40144531,37.8033628 C6.88148438,37.4483186 6.32399414,37.1809735 5.74760742,37.0007965 C6.88851563,35.760885 8.83151367,34.6417699 11.3477344,33.7920354 C11.6940234,33.6751327 11.8806152,33.2976106 11.7645117,32.9488496 C11.6484082,32.600177 11.2736426,32.4122124 10.9271777,32.5292035 C7.76654297,33.5964602 5.47198242,35.0438053 4.25513672,36.7314159 C2.9352832,36.6595575 1.59873047,37.0162832 0.445957031,37.8033628 C0.143613281,38.009823 0.0647753906,38.4238938 0.269824219,38.7283186 C0.474785156,39.0327434 0.885761719,39.1122124 1.18845703,38.9057522 C2.17019531,38.2353982 3.3215625,37.9613274 4.44208008,38.0831858 C4.48233398,38.0919469 4.52293945,38.0975221 4.5637207,38.0984956 C5.29743164,38.1972566 6.01479492,38.4658407 6.65912109,38.9058407 C8.77166016,40.3484071 11.5018066,40.3485841 13.6146094,38.9058407 C15.2763574,37.7711504 17.4237012,37.7712389 19.0851855,38.9058407 C21.1978125,40.3484071 23.927959,40.3485841 26.0406738,38.9058407 C27.702334,37.7711504 29.8496777,37.7712389 31.51125,38.9058407 C32.5676074,39.6271681 33.7783008,39.9878761 34.989082,39.9878761 C36.1997754,39.9878761 37.4104688,39.6271681 38.4669141,38.9058407 C39.1097461,38.4669027 39.8253516,38.1984956 40.5573926,38.0992035 C40.6007227,38.0984071 40.643877,38.0924779 40.6867676,38.0829204 C41.8064063,37.9618584 42.9566309,38.2359292 43.9374902,38.9057522 C44.239834,39.1122124 44.6511621,39.0328319 44.856123,38.7283186 C45.0608203,38.4241593 44.9819824,38.01 44.6797266,37.8035398 Z M26.5715332,16.0533628 C26.5785645,16.0383186 26.5858594,16.0234513 26.5929785,16.0084071 C27.2090918,14.709823 27.9277734,13.4546018 28.7661621,12.2880531 C28.971123,12.0029204 28.9124121,11.5725664 28.6181543,11.3581416 C28.3303125,11.1483186 27.902373,11.2179646 27.6945117,11.5072566 C27.0213574,12.4438053 26.4232617,13.4350442 25.8865137,14.4567257 C25.692627,14.8259292 25.4956641,15.1995575 25.329375,15.5824779 C25.3264746,15.5886726 25.3233984,15.5948673 25.320498,15.6010619 C24.3101074,14.5000885 23.0331445,13.6240708 21.5745996,13.0389381 C20.2916602,12.5240708 18.9564258,12.269823 17.6428125,12.2836283 C18.5258496,11.2837168 19.9763965,9.8240708 21.8646387,8.56123894 C23.7368848,7.30902655 25.6694238,6.49159292 27.608291,6.13168142 C29.4841406,5.78353982 31.3769531,5.86522124 33.2551758,6.37327434 C33.2476172,6.37743363 33.2395312,6.3820354 33.2319727,6.38619469 C32.2158691,6.94769912 31.2737695,7.64053097 30.418418,8.42716814 C30.0847852,8.7339823 29.7593262,9.04938053 29.4474902,9.37849558 C29.1954199,9.64469027 29.2053516,10.0662832 29.4697266,10.3200885 C29.7341016,10.5738938 30.1527246,10.5638938 30.4048828,10.2976991 C31.2526758,9.40230088 32.2099805,8.58345133 33.255,7.92141593 C33.7366406,7.61619469 34.239375,7.34044248 34.7643457,7.11814159 C34.9022461,7.43309735 35.0816309,7.89938053 35.2501172,8.5100885 C36.0476367,11.4029204 35.8321289,14.5246903 35.1330469,17.4134513 C34.982666,18.0346903 34.8089062,18.650531 34.6118555,19.2583186 C34.609834,19.2646018 34.6076367,19.2710619 34.6056152,19.2774336 C33.7056152,18.3186726 32.6003906,17.5358407 31.3490918,16.9723894 C31.3319531,16.9646903 31.3148145,16.9569912 31.2976758,16.9493805 C29.8177734,16.2916814 28.1891602,15.9634513 26.5715332,16.0533628 Z M26.3299219,30.9575221 C26.0232715,30.9307965 25.7145117,30.9079646 25.4039941,30.8877876 C25.0607813,30.8640708 24.7169531,30.8466372 24.3732129,30.8325664 L29.5605176,17.7282301 C29.8744629,17.8187611 30.1834863,17.9264602 30.4860938,18.0497345 C30.5352246,18.069823 31.2931055,18.4193805 31.2916992,18.4229204 L26.3299219,30.9575221 Z" fill-rule="nonzero"></path>
        </g>
    </g>
</svg>