<svg id="Layer_1" data-name="Layer 1" xmlns="http://www.w3.org/2000/svg" viewBox="0 0 45 45"><defs><style>.cls-1{fill:#eee9d1;}</style></defs><title>emoji-surprise</title><path class="cls-1" d="M29.84,7.92H15.16A12.68,12.68,0,0,0,2.5,20.58v3.84A12.68,12.68,0,0,0,15.16,37.08H29.84A12.68,12.68,0,0,0,42.5,24.42V20.58A12.68,12.68,0,0,0,29.84,7.92Zm10.63,16.5A10.64,10.64,0,0,1,29.84,35.05H15.16A10.64,10.64,0,0,1,4.53,24.42V20.58A10.64,10.64,0,0,1,15.16,10H29.84A10.64,10.64,0,0,1,40.47,20.58Z"/><path class="cls-1" d="M18.56,16.65a2,2,0,1,0,2,2A2,2,0,0,0,18.56,16.65Z"/><path class="cls-1" d="M33.64,16.65a2,2,0,1,0,2,2A2,2,0,0,0,33.64,16.65Z"/><path class="cls-1" d="M27.56,20.65a2,2,0,1,0,2,2A2,2,0,0,0,27.56,20.65Z"/></svg>