<svg id="Layer_1" data-name="Layer 1" xmlns="http://www.w3.org/2000/svg" viewBox="0 0 45 45"><title>sentiemoji-jack-o-lantern</title><path d="M36.8,31.56a.78.78,0,1,0-.78-.78A.78.78,0,0,0,36.8,31.56Z" style="fill:#eee9d1"/><path d="M9.77,22.19a.78.78,0,0,0,.78-.78.79.79,0,1,0-.78.78Z" style="fill:#eee9d1"/><path d="M12.89,40.94a7.58,7.58,0,0,0,1.83-.23A5.24,5.24,0,0,0,18,40.62a6.23,6.23,0,0,0,8.92,0,5.24,5.24,0,0,0,3.32.09,7.58,7.58,0,0,0,1.83.23,9.39,9.39,0,0,0,7.38-4.21,16.79,16.79,0,0,0,3-9.85c0-8.17-5.22-14.71-11.27-14a6.34,6.34,0,0,0-4-1.61l-.38,0a17.78,17.78,0,0,1-1.19-6.34V3.28a.77.77,0,0,0-.78-.78H20.16a.77.77,0,0,0-.78.78V4.93a17.78,17.78,0,0,1-1.19,6.34l-.38,0a6.3,6.3,0,0,0-4,1.62,6.4,6.4,0,0,0-.88-.06A9.39,9.39,0,0,0,5.51,17a16.8,16.8,0,0,0-3,9.86,16.79,16.79,0,0,0,3,9.85A9.39,9.39,0,0,0,12.89,40.94Zm8.05-36V4.06h3.12v.87a19.37,19.37,0,0,0,1.2,6.69,4.82,4.82,0,0,0-.66.3,3.63,3.63,0,0,0-4.2,0,4.82,4.82,0,0,0-.66-.3A19.37,19.37,0,0,0,20.94,4.93ZM12.31,14.4a14.52,14.52,0,0,0-2.06,3.87.78.78,0,1,0,1.48.52,11.23,11.23,0,0,1,2.77-4.48,4.61,4.61,0,0,1,4-1.43h0a3.52,3.52,0,0,1,.61.18,11.89,11.89,0,0,0-1.92,3.37.78.78,0,1,0,1.45.58c.66-1.68,2-4.2,3.83-4.2s3.17,2.51,3.83,4.2a.79.79,0,0,0,1,.44.78.78,0,0,0,.44-1,11.89,11.89,0,0,0-1.92-3.37,3.52,3.52,0,0,1,.61-.18h0a4.63,4.63,0,0,1,4,1.42,11,11,0,0,1,2.69,4.25A.78.78,0,1,0,34.65,18a13.68,13.68,0,0,0-2-3.61c4.64.44,8.25,6.1,8.25,12.48s-3.68,12-8.18,12.46a12.58,12.58,0,0,0,3.55-5.42.78.78,0,0,0-1.47-.53C33.79,36.33,32,38.49,30,39.16a3.88,3.88,0,0,1-2.05.13,6.3,6.3,0,0,0,.73-2.15.78.78,0,0,0-1.55-.22,4.69,4.69,0,0,1-9.28,0,.78.78,0,0,0-1.55.22A6.3,6.3,0,0,0,17,39.29a3.88,3.88,0,0,1-2-.13c-1.92-.65-3.69-2.72-4.74-5.53a.78.78,0,1,0-1.46.55,12.15,12.15,0,0,0,3.43,5.16c-4.49-.51-8.16-6-8.16-12.46S7.79,14.84,12.31,14.4Z" style="fill:#eee9d1"/><path d="M13.6,25.41l5.87-2.14a.76.76,0,0,0,.51-.62.79.79,0,0,0-.31-.74l-4.54-3.34a.79.79,0,0,0-.73-.1.77.77,0,0,0-.49.55l-1.34,5.47a.82.82,0,0,0,.24.77A.79.79,0,0,0,13.6,25.41Zm1.55-4.88,2.42,1.77-3.13,1.14Z" style="fill:#eee9d1"/><path d="M25.53,23.27l5.87,2.14a.79.79,0,0,0,.79-.15.82.82,0,0,0,.24-.77L31.09,19a.77.77,0,0,0-.49-.55.79.79,0,0,0-.73.1l-4.54,3.34a.79.79,0,0,0-.31.74A.76.76,0,0,0,25.53,23.27Zm4.32-2.74.71,2.91L27.43,22.3Z" style="fill:#eee9d1"/><path d="M21.49,26.65l1-1,1,1a.78.78,0,1,0,1.1-1.11L23.05,24A.77.77,0,0,0,22,24l-1.56,1.56a.78.78,0,1,0,1.1,1.11Z" style="fill:#eee9d1"/><path d="M13.2,30a10,10,0,0,0,18.6,0l.8-2a.79.79,0,0,0-.16-.83.77.77,0,0,0-.81-.2A28.72,28.72,0,0,1,27.06,28a.78.78,0,0,0-.65.77V30H24.84v-.9a.76.76,0,0,0-.24-.57.77.77,0,0,0-.58-.21c-1,.05-2,.05-3,0a.77.77,0,0,0-.58.21.76.76,0,0,0-.24.57V30H18.59V28.8a.77.77,0,0,0-.65-.77,27.47,27.47,0,0,1-4.57-1.12.79.79,0,0,0-1,1Zm3.83-.5v1.32a.78.78,0,0,0,.78.78h3.13a.78.78,0,0,0,.78-.78v-.87q.78,0,1.56,0v.87a.78.78,0,0,0,.78.78h3.13a.78.78,0,0,0,.78-.78V29.46c.86-.15,1.73-.35,2.58-.58l-.2.5a8.46,8.46,0,0,1-15.7,0l-.2-.5C15.3,29.11,16.17,29.31,17,29.46Z" style="fill:#eee9d1"/></svg>