<svg id="Layer_1" data-name="Layer 1" xmlns="http://www.w3.org/2000/svg" viewBox="0 0 45 45"><title>sentiemoji-coffin</title><path d="M26.3,14a1.1,1.1,0,0,1-1.1,1.1H23.6v8.28a1.1,1.1,0,0,1-2.2,0V15.11H19.8a1.1,1.1,0,1,1,0-2.19h1.6V11.31a1.1,1.1,0,0,1,2.2,0v1.61h1.6A1.09,1.09,0,0,1,26.3,14Zm7.16.15L29.89,41.55a1.1,1.1,0,0,1-1.09,1H16.2a1.1,1.1,0,0,1-1.09-1L11.54,14.16a1.06,1.06,0,0,1,.05-.5L15.16,3.24a1.1,1.1,0,0,1,1-.74H28.8a1.1,1.1,0,0,1,1,.74l3.57,10.42A1.06,1.06,0,0,1,33.46,14.16Zm-2.2,0L28,4.69H17l-3.24,9.44,3.42,26.18H27.84Z" style="fill:#eee9d1"/></svg>