<svg id="Layer_1" data-name="Layer 1" xmlns="http://www.w3.org/2000/svg" viewBox="0 0 45 45"><title>sentiemoji-zombie</title><path d="M19.89,26.88a3.49,3.49,0,1,0-3.48,3.48A3.48,3.48,0,0,0,19.89,26.88Zm-5.23,0a1.75,1.75,0,1,1,1.75,1.74A1.74,1.74,0,0,1,14.66,26.88Z" style="fill:#eee9d1"/><path d="M18.15,37.33h1.74V35.59h1.74v1.74h1.74V35.59h1.74v1.74h1.74V35.59h1.74V33.84H26.85V32.1H25.11v1.74H23.37V32.1H21.63v1.74H19.89V32.1H18.15v1.74H16.41v1.75h1.74Z" style="fill:#eee9d1"/><path d="M28.59,42.5a7.84,7.84,0,0,0,7-7.78V31.14A4.35,4.35,0,0,0,39,26.88V19A16.56,16.56,0,0,0,22.5,2.5l-.78,0-1.22.08.19,1a3,3,0,0,1,.07.65s0,.09,0,.13A14.69,14.69,0,0,0,8,16.2a3.12,3.12,0,0,1-1.09.22l-.76,0-.09.76A17.26,17.26,0,0,0,6,19v7.84a4.35,4.35,0,0,0,3.48,4.26v3.58a7.84,7.84,0,0,0,7,7.78M35.56,29.33v-4.9a2.59,2.59,0,0,1,0,4.9ZM20.14,6.22a3.54,3.54,0,0,1-.93.92l-.5.33.14.59A6.31,6.31,0,0,1,19,9.47a6.1,6.1,0,0,1-6.1,6.09A6,6,0,0,1,10.43,15l-.3-.13A12.94,12.94,0,0,1,20.14,6.22ZM7.7,26.88a2.61,2.61,0,0,1,1.74-2.45v4.9A2.61,2.61,0,0,1,7.7,26.88Zm1.74-6.1v1.83a4.35,4.35,0,0,0-1.74.81V19c0-.31,0-.62,0-.95a5.14,5.14,0,0,0,2.56-1.25,7.59,7.59,0,0,0,2.63.46,7.84,7.84,0,0,0,7.84-7.83,7.64,7.64,0,0,0-.11-1.25,5.18,5.18,0,0,0,1.85-4A14.82,14.82,0,0,1,37.3,19v4.38a4.35,4.35,0,0,0-1.74-.81V17.3H33.82V30.36a.87.87,0,0,1-1.74,0V19.91a2.62,2.62,0,0,0-5.23,0V23.4a.87.87,0,1,1-1.74,0V19.53a2.23,2.23,0,0,0-3.36-1.92,23.23,23.23,0,0,1-11.44,3.17Zm1.74,13.94V22.51a25.3,25.3,0,0,0,11.46-3.4.5.5,0,0,1,.73.42V23.4a2.61,2.61,0,0,0,5.22,0V19.91a.88.88,0,0,1,1.75,0V30.36A2.61,2.61,0,0,0,33,33a2.78,2.78,0,0,0,.87-.14v1.89a6.1,6.1,0,0,1-6.1,6.09H17.28A6.1,6.1,0,0,1,11.18,34.72Z" style="fill:#eee9d1"/></svg>