<svg id="Layer_1" data-name="Layer 1" xmlns="http://www.w3.org/2000/svg" viewBox="0 0 45 45"><title>sentiemoji-moneybag</title><path d="M23.85,27.61H21.56a1.51,1.51,0,0,1,0-3h4a1,1,0,0,0,0-2H23.7V21.21a1,1,0,0,0-2,0V22.6h-.14a3.5,3.5,0,1,0,0,7h2.29a1.51,1.51,0,0,1,0,3h-4.1a1,1,0,0,0,0,2h2V36a1,1,0,0,0,2,0V34.61h.19a3.5,3.5,0,0,0,0-7Z" style="fill:#eee9d1"/><path d="M37.7,25.34a28.69,28.69,0,0,0-4.32-6.93,32.66,32.66,0,0,0-5.54-5.27l4.24-7.86A1,1,0,0,0,31.9,4.1a5,5,0,0,0-3.56-1.6,8.38,8.38,0,0,0-3.23.85,6,6,0,0,1-2,.61,1.23,1.23,0,0,1-.47-.09,14.85,14.85,0,0,0-5-1.17,6.75,6.75,0,0,0-5,2.34,1,1,0,0,0-.12,1.25l4.58,6.91a33,33,0,0,0-5.47,5.21A29,29,0,0,0,7.3,25.34a23.53,23.53,0,0,0-2,9.42,7.76,7.76,0,0,0,7.74,7.74H31.94a7.76,7.76,0,0,0,7.74-7.74A23.53,23.53,0,0,0,37.7,25.34ZM14.64,5.88a4.33,4.33,0,0,1,3-1.2,13.08,13.08,0,0,1,4.28,1.05,3.16,3.16,0,0,0,1.15.2,7.43,7.43,0,0,0,2.8-.75,6.66,6.66,0,0,1,2.46-.7,2.65,2.65,0,0,1,1.6.55l-4,7.42H19ZM31.94,40.5H13.06a5.75,5.75,0,0,1-5.75-5.74,23.28,23.28,0,0,1,5.8-15,30.66,30.66,0,0,1,5.65-5.29h7.47a30.72,30.72,0,0,1,5.64,5.29,23.2,23.2,0,0,1,5.8,15A5.72,5.72,0,0,1,31.94,40.5Z" style="fill:#eee9d1"/></svg>