<svg id="Layer_1" data-name="Layer 1" xmlns="http://www.w3.org/2000/svg" viewBox="0 0 45 45"><defs><style>.cls-1,.cls-2{fill:#eee9d1;}.cls-2{stroke:#eee9d1;stroke-miterlimit:10;}</style></defs><title>emoji-poop</title><path class="cls-1" d="M13.4,31.5A1.58,1.58,0,1,0,15,33.08,1.58,1.58,0,0,0,13.4,31.5Z"/><path class="cls-1" d="M30,31.5a1.58,1.58,0,1,0,0,3.15,1.58,1.58,0,0,0,0-3.15Z"/><path class="cls-1" d="M24.86,35.34a4.5,4.5,0,0,1-6.35,0,.82.82,0,1,0-1.16,1.16,6.14,6.14,0,0,0,8.67,0,.82.82,0,0,0-1.16-1.16Z"/><path class="cls-2" d="M40.2,30.87c-.28-.21-.59-.42-.91-.62a8.48,8.48,0,0,0,.45-6.48,8.56,8.56,0,0,0-4.65-4.35,9.35,9.35,0,0,0,.32-5.85c-1-3.14-4-4.65-6.63-6-2.21-1.12-4.29-2.17-4.44-3.8a.78.78,0,0,0-.25-.52.48.48,0,0,0-.48-.1A21.86,21.86,0,0,0,18.7,5.64a13.9,13.9,0,0,0-6.18,8,13.36,13.36,0,0,0-2.87,2.61,8.36,8.36,0,0,0-1.87,7.36,19.09,19.09,0,0,0-2.92,3.61A14,14,0,0,0,2.73,37.36C3.24,40,5.16,41.87,7.4,41.87H37.66c2.22,0,4-1.71,4.65-4.35A6.45,6.45,0,0,0,40.2,30.87Zm1,6.26c-.35,1.52-1.48,3.29-3.52,3.29H7.4A3.85,3.85,0,0,1,3.87,37a12.14,12.14,0,0,1,1.9-8.87A18.23,18.23,0,0,1,8.3,25h0a4.59,4.59,0,0,0,2.41,1.5h0c3.29,1.08,6.75,1.12,10.12,1.39a102.87,102.87,0,0,1,10.92,1.28.61.61,0,0,0,.66-.53.75.75,0,0,0-.48-.9,105.69,105.69,0,0,0-11-1.29,76.44,76.44,0,0,1-8.35-.95,11.29,11.29,0,0,1-2.24-.67A2,2,0,0,1,9,23.65a6.7,6.7,0,0,1,1.45-6.34,11.9,11.9,0,0,1,2.44-2.25l.1.1a5.07,5.07,0,0,0,1.62,1,13,13,0,0,0,1.6.52c.31.09.62-.16.69-.55a.74.74,0,0,0-.45-.86l-.18-.05a9.64,9.64,0,0,1-2-.74,2.9,2.9,0,0,1-.66-.47c1.45-5.55,7.74-8.43,9.67-9.2.63,1.94,2.76,3,5,4.15,2.43,1.22,5.18,2.62,6,5.17A7.82,7.82,0,0,1,34,19C29.05,17,23.83,16.7,18.74,15.74a.61.61,0,0,0-.66.6.71.71,0,0,0,.49.82c3.14.6,6.3,1,9.44,1.62a30.91,30.91,0,0,1,6.1,1.75h0c2.19.93,3.88,2.16,4.57,3.88.58,1.44.42,3.17-.47,5.26-.45-.22-.9-.41-1.36-.59a21.52,21.52,0,0,0-2.58-.83.61.61,0,0,0-.71.56.74.74,0,0,0,.47.86c.23.06.47.12.7.2a14.6,14.6,0,0,1,4.85,2.23A5,5,0,0,1,41.18,37.13Z"/></svg>