<svg xmlns="http://www.w3.org/2000/svg" viewBox="0 0 45 45"><defs><style>.a{fill:#eee9d1;}</style></defs><title>emoji-feedback</title><path class="a" d="M5.9,24.83V40.24A1.75,1.75,0,0,0,7.65,42h5.24a1.74,1.74,0,0,0,1.44-.76,4.61,4.61,0,0,0,3.18,1.27h14c3.14,0,5.15-1.65,5.51-4.53l1.88-12a.66.66,0,0,0,0-.14A4.64,4.64,0,0,0,34.3,21.2h-7v-5c0-2.18-.63-3.75-1.9-4.69-2-1.46-4.74-.63-4.86-.59a.89.89,0,0,0-.62.84v5.73c0,4.47-5.19,6-5.4,6.06a.66.66,0,0,0-.3.15,1.75,1.75,0,0,0-1.3-.59H7.65A1.76,1.76,0,0,0,5.9,24.83Zm8.75.42a.87.87,0,0,0,.32,0c.28-.08,6.71-1.94,6.71-7.76v-5a3.63,3.63,0,0,1,2.65.47c.78.57,1.18,1.67,1.18,3.24v5.93a.89.89,0,0,0,.89.89h7.9a2.86,2.86,0,0,1,2.86,2.8L35.29,37.7v0q-.37,3-3.75,3h-14a2.86,2.86,0,0,1-2.86-2.86V25.25Zm-7-.4h5.19V40.21H7.68Z"/><path class="a" d="M23.82,3.35a.86.86,0,1,0-1.72,0l0,2.63a.85.85,0,0,0,.87.85.89.89,0,0,0,.7-.38.84.84,0,0,0,.15-.5Z"/><path class="a" d="M20.2,7.78a.92.92,0,0,0,.22-.22.84.84,0,0,0,0-1L18.9,4.42a.86.86,0,0,0-1.2-.21.86.86,0,0,0-.21,1.2L19,7.57A.87.87,0,0,0,20.2,7.78Z"/><path class="a" d="M27.13,4.3v0L25.65,6.51a.83.83,0,0,0,.23,1.17.86.86,0,0,0,1.19-.23v0l1.44-2.2a.84.84,0,0,0-.24-1.18A.83.83,0,0,0,27.13,4.3Z"/></svg>