<svg xmlns="http://www.w3.org/2000/svg" viewBox="0 0 45 45"><defs><style>.a{fill:#eee9d1;}</style></defs><title>emoji-feedback</title><path class="a" d="M35,14.17a3.34,3.34,0,0,0-1.85.56,3.34,3.34,0,0,0-5-1.67,3.34,3.34,0,0,0-4.82-1.78V5.83a3.33,3.33,0,1,0-6.66,0V25.32L12.09,23a5,5,0,0,0-2.24-.53,3.18,3.18,0,0,0-3.18,3.19,3.14,3.14,0,0,0,.93,2.25L18.38,38.72A12.78,12.78,0,0,0,27.5,42.5,10.84,10.84,0,0,0,38.33,31.67V17.5A3.33,3.33,0,0,0,35,14.17Zm1.67,17.5a9.18,9.18,0,0,1-9.17,9.16,11.16,11.16,0,0,1-7.94-3.29L8.78,26.77a1.52,1.52,0,0,1,1.07-2.6,3.33,3.33,0,0,1,1.49.35l5.79,2.89a.83.83,0,0,0,.81,0,.85.85,0,0,0,.39-.71V5.83a1.67,1.67,0,0,1,3.34,0V21.67a.83.83,0,0,0,1.66,0v-7.5a1.67,1.67,0,0,1,3.34,0v7.5a.83.83,0,0,0,1.66,0V15.83a1.67,1.67,0,0,1,3.34,0v5.84a.83.83,0,0,0,1.66,0V17.5a1.67,1.67,0,0,1,3.34,0Z"/></svg>